<svg height="1080" width="1198" xmlns="http://www.w3.org/2000/svg">
<path d="M 0 0 L 0 1068 L 1 1069 L 0 1070 L 0 1079 L 1197 1079 L 1197 0 Z" fill="#cccccc" stroke="black" stroke-width="1" />
<path d="M 468 1059 L 469 1058 L 470 1059 L 470 1060 L 469 1061 L 468 1060 Z" fill="#cccccc" stroke="black" stroke-width="1" />
<path d="M 15 1001 L 16 1000 L 17 1001 L 16 1002 Z" fill="#cccccc" stroke="black" stroke-width="1" />
<path d="M 524 896 L 525 895 L 540 895 L 541 896 L 544 896 L 545 897 L 547 897 L 548 898 L 549 898 L 550 899 L 551 899 L 552 900 L 553 900 L 554 901 L 555 901 L 558 904 L 559 904 L 563 908 L 563 909 L 567 913 L 567 914 L 568 915 L 568 916 L 569 917 L 569 918 L 570 919 L 570 920 L 571 921 L 571 922 L 572 923 L 572 926 L 573 927 L 573 932 L 574 933 L 574 940 L 573 941 L 573 946 L 572 947 L 572 949 L 571 950 L 571 952 L 570 953 L 570 954 L 569 955 L 569 956 L 568 957 L 568 958 L 566 960 L 566 961 L 563 964 L 563 965 L 561 967 L 560 967 L 556 971 L 555 971 L 553 973 L 552 973 L 551 974 L 550 974 L 549 975 L 548 975 L 547 976 L 545 976 L 544 977 L 540 977 L 539 978 L 526 978 L 525 977 L 522 977 L 521 976 L 519 976 L 518 975 L 517 975 L 516 974 L 515 974 L 514 973 L 513 973 L 512 972 L 511 972 L 508 969 L 507 969 L 501 963 L 501 962 L 498 959 L 498 958 L 497 957 L 497 956 L 496 955 L 496 954 L 495 953 L 495 952 L 494 951 L 494 949 L 493 948 L 493 944 L 492 943 L 492 930 L 493 929 L 493 926 L 494 925 L 494 922 L 495 921 L 495 920 L 496 919 L 496 918 L 497 917 L 497 916 L 498 915 L 498 914 L 501 911 L 501 910 L 508 903 L 509 903 L 511 901 L 512 901 L 514 899 L 515 899 L 516 898 L 517 898 L 518 897 L 520 897 L 521 896 Z" fill="#cccccc" stroke="black" stroke-width="1" />
<path d="M 552 970 L 551 971 L 550 971 L 549 972 L 550 971 L 551 971 Z" fill="#cccccc" stroke="black" stroke-width="1" />
<path d="M 559 965 L 557 967 Z" fill="#cccccc" stroke="black" stroke-width="1" />
<path d="M 528 922 L 527 923 L 526 923 L 525 924 L 524 924 L 520 928 L 520 929 L 519 930 L 519 932 L 518 933 L 518 940 L 519 941 L 519 943 L 520 944 L 520 945 L 525 950 L 526 950 L 527 951 L 528 951 L 529 952 L 537 952 L 538 951 L 539 951 L 540 950 L 541 950 L 546 945 L 546 944 L 547 943 L 547 942 L 548 941 L 548 933 L 547 932 L 547 930 L 546 929 L 546 928 L 542 924 L 541 924 L 540 923 L 539 923 L 538 922 Z" fill="#cccccc" stroke="black" stroke-width="1" />
<path d="M 405 895 L 406 894 L 407 895 L 406 896 Z" fill="#cccccc" stroke="black" stroke-width="1" />
<path d="M 128 880 L 129 879 L 130 880 L 129 881 Z" fill="#cccccc" stroke="black" stroke-width="1" />
<path d="M 423 868 L 424 867 L 425 868 L 424 869 Z" fill="#cccccc" stroke="black" stroke-width="1" />
<path d="M 180 862 L 181 861 L 194 861 L 195 862 L 199 862 L 200 863 L 202 863 L 203 864 L 204 864 L 205 865 L 206 865 L 207 866 L 208 866 L 209 867 L 210 867 L 213 870 L 214 870 L 219 875 L 219 876 L 222 879 L 222 880 L 224 882 L 224 883 L 225 884 L 225 886 L 226 887 L 226 888 L 227 889 L 227 892 L 228 893 L 228 897 L 229 898 L 229 906 L 228 907 L 228 911 L 227 912 L 227 915 L 226 916 L 226 917 L 225 918 L 225 919 L 224 920 L 224 921 L 223 922 L 223 923 L 222 924 L 222 925 L 211 936 L 210 936 L 208 938 L 207 938 L 206 939 L 205 939 L 204 940 L 202 940 L 201 941 L 199 941 L 198 942 L 195 942 L 194 943 L 182 943 L 181 942 L 178 942 L 177 941 L 175 941 L 174 940 L 172 940 L 171 939 L 170 939 L 168 937 L 167 937 L 165 935 L 164 935 L 155 926 L 155 925 L 154 924 L 154 923 L 152 921 L 152 920 L 151 919 L 151 917 L 150 916 L 150 914 L 149 913 L 149 910 L 148 909 L 148 895 L 149 894 L 149 891 L 150 890 L 150 888 L 151 887 L 151 885 L 152 884 L 152 883 L 153 882 L 153 881 L 155 879 L 155 878 L 165 868 L 166 868 L 168 866 L 169 866 L 170 865 L 171 865 L 172 864 L 173 864 L 174 863 L 176 863 L 177 862 Z" fill="#cccccc" stroke="black" stroke-width="1" />
<path d="M 184 887 L 183 888 L 181 888 L 179 890 L 178 890 L 177 891 L 177 892 L 175 894 L 175 895 L 174 896 L 174 899 L 173 900 L 173 905 L 174 906 L 174 908 L 176 910 L 176 911 L 180 915 L 181 915 L 182 916 L 184 916 L 185 917 L 191 917 L 192 916 L 194 916 L 195 915 L 196 915 L 201 910 L 201 909 L 202 908 L 202 905 L 203 904 L 203 900 L 202 899 L 202 897 L 201 896 L 201 895 L 200 894 L 200 893 L 196 889 L 195 889 L 194 888 L 192 888 L 191 887 Z" fill="#cccccc" stroke="black" stroke-width="1" />
<path d="M 821 853 L 822 852 L 823 853 L 822 854 Z" fill="#cccccc" stroke="black" stroke-width="1" />
<path d="M 830 848 L 831 847 L 832 848 L 831 849 Z" fill="#cccccc" stroke="black" stroke-width="1" />
<path d="M 839 843 L 840 842 L 841 843 L 840 844 Z" fill="#cccccc" stroke="black" stroke-width="1" />
<path d="M 857 832 L 858 831 L 859 832 L 858 833 Z" fill="#cccccc" stroke="black" stroke-width="1" />
<path d="M 883 815 L 884 814 L 885 815 L 884 816 Z" fill="#cccccc" stroke="black" stroke-width="1" />
<path d="M 458 813 L 459 812 L 460 813 L 459 814 Z" fill="#cccccc" stroke="black" stroke-width="1" />
<path d="M 670 811 L 671 810 L 672 811 L 671 812 Z" fill="#cccccc" stroke="black" stroke-width="1" />
<path d="M 892 798 L 893 797 L 894 797 L 895 798 L 895 799 L 894 800 L 894 801 L 891 804 L 891 806 L 890 807 L 889 806 L 884 811 L 884 814 L 883 815 L 881 813 L 880 814 L 879 814 L 878 815 L 878 816 L 876 818 L 876 820 L 877 821 L 877 822 L 876 823 L 873 820 L 872 820 L 871 821 L 870 821 L 869 822 L 868 822 L 867 823 L 867 825 L 868 826 L 868 827 L 867 828 L 864 825 L 863 825 L 862 826 L 861 826 L 859 828 L 858 828 L 858 831 L 857 832 L 855 830 L 854 831 L 852 831 L 849 834 L 849 836 L 850 837 L 849 838 L 848 838 L 846 836 L 844 836 L 843 837 L 842 837 L 840 839 L 840 842 L 839 843 L 837 841 L 836 841 L 835 842 L 834 842 L 833 843 L 832 843 L 831 844 L 831 847 L 830 848 L 828 846 L 827 846 L 826 847 L 825 847 L 823 849 L 822 849 L 822 852 L 821 853 L 820 853 L 819 852 L 817 852 L 816 853 L 815 853 L 813 855 L 813 857 L 814 858 L 813 859 L 812 859 L 810 857 L 808 857 L 806 859 L 805 859 L 804 860 L 804 863 L 803 864 L 801 862 L 800 862 L 799 863 L 798 863 L 795 866 L 795 869 L 794 870 L 792 868 L 790 868 L 789 869 L 788 869 L 786 871 L 786 873 L 787 874 L 786 875 L 785 875 L 783 873 L 781 873 L 779 875 L 778 875 L 777 876 L 777 879 L 776 880 L 775 879 L 772 879 L 771 880 L 770 880 L 768 882 L 768 883 L 766 885 L 765 884 L 764 884 L 762 886 L 761 886 L 759 888 L 758 888 L 756 890 L 755 890 L 754 891 L 753 891 L 752 892 L 751 892 L 749 894 L 748 894 L 746 896 L 745 896 L 744 897 L 743 897 L 741 899 L 740 899 L 739 900 L 738 900 L 736 902 L 735 902 L 734 903 L 733 903 L 731 905 L 730 905 L 729 906 L 728 906 L 726 908 L 725 908 L 724 909 L 723 909 L 721 911 L 720 911 L 719 912 L 718 912 L 716 914 L 715 914 L 714 915 L 713 915 L 711 917 L 710 917 L 709 918 L 709 919 L 708 920 L 708 921 L 707 922 L 707 923 L 706 924 L 706 927 L 707 928 L 707 929 L 708 930 L 708 931 L 709 932 L 709 933 L 710 934 L 710 936 L 711 937 L 710 938 L 710 939 L 709 940 L 707 940 L 706 941 L 705 941 L 703 939 L 703 938 L 702 937 L 702 936 L 701 936 L 699 934 L 698 934 L 696 932 L 695 932 L 689 926 L 689 925 L 688 924 L 688 922 L 687 921 L 687 919 L 686 918 L 685 918 L 683 916 L 683 915 L 682 914 L 682 912 L 681 911 L 681 908 L 680 907 L 680 898 L 679 897 L 679 895 L 678 894 L 678 892 L 681 889 L 682 889 L 687 894 L 687 895 L 689 897 L 689 898 L 691 900 L 691 901 L 695 901 L 696 902 L 699 902 L 700 901 L 702 901 L 703 900 L 704 900 L 706 898 L 707 898 L 708 897 L 709 897 L 711 895 L 712 895 L 713 894 L 714 894 L 716 892 L 717 892 L 718 891 L 719 891 L 721 889 L 722 889 L 723 888 L 724 888 L 726 886 L 727 886 L 728 885 L 729 885 L 730 884 L 731 884 L 733 882 L 734 882 L 735 881 L 736 881 L 738 879 L 739 879 L 740 878 L 741 878 L 743 876 L 744 876 L 745 875 L 746 875 L 748 873 L 749 873 L 750 872 L 751 872 L 754 869 L 755 870 L 756 869 L 757 869 L 758 868 L 759 868 L 760 867 L 760 865 L 762 863 L 763 863 L 764 864 L 766 864 L 767 863 L 768 863 L 769 862 L 769 858 L 770 857 L 771 857 L 772 858 L 773 858 L 774 859 L 775 859 L 776 858 L 777 858 L 778 857 L 778 855 L 777 854 L 779 852 L 781 852 L 782 853 L 785 853 L 787 851 L 786 850 L 786 848 L 788 846 L 789 846 L 790 847 L 791 847 L 792 848 L 793 848 L 794 847 L 795 847 L 796 846 L 796 845 L 795 844 L 795 843 L 797 841 L 799 841 L 800 842 L 803 842 L 805 840 L 804 839 L 804 837 L 806 835 L 807 835 L 809 837 L 812 837 L 814 835 L 813 834 L 813 832 L 815 830 L 816 830 L 817 831 L 818 831 L 819 832 L 820 832 L 821 831 L 822 831 L 823 830 L 822 829 L 822 826 L 823 825 L 826 825 L 828 827 L 829 827 L 830 826 L 831 826 L 831 821 L 833 819 L 834 820 L 835 820 L 836 821 L 837 821 L 838 822 L 840 820 L 840 816 L 842 814 L 843 814 L 844 815 L 845 815 L 846 816 L 848 816 L 850 814 L 849 813 L 849 811 L 851 809 L 853 809 L 855 811 L 857 811 L 859 809 L 858 808 L 858 805 L 859 804 L 862 804 L 864 806 L 866 806 L 867 805 L 868 805 L 868 801 L 869 800 L 871 800 L 872 801 L 873 801 L 874 802 L 878 802 L 878 800 L 880 798 L 882 798 L 883 799 L 888 799 L 889 798 Z" fill="#cccccc" stroke="black" stroke-width="1" />
<path d="M 507 756 L 508 757 L 508 762 L 507 763 L 507 764 L 506 765 L 506 768 L 505 769 L 505 770 L 504 771 L 505 770 L 506 771 L 506 772 L 507 773 L 507 774 L 506 775 L 503 775 L 502 776 L 502 778 L 501 779 L 501 780 L 503 782 L 503 784 L 502 785 L 498 785 L 497 786 L 497 788 L 496 789 L 496 790 L 498 792 L 498 793 L 497 794 L 493 794 L 491 796 L 491 800 L 492 801 L 492 802 L 491 803 L 490 803 L 489 804 L 488 803 L 487 803 L 486 804 L 486 805 L 485 806 L 485 809 L 486 810 L 486 811 L 484 813 L 480 813 L 480 814 L 479 815 L 479 817 L 480 818 L 480 820 L 478 822 L 475 822 L 474 823 L 474 824 L 473 825 L 473 826 L 475 828 L 475 829 L 473 831 L 469 831 L 468 832 L 468 833 L 467 834 L 467 835 L 468 836 L 468 837 L 469 838 L 467 840 L 463 840 L 463 841 L 462 842 L 462 845 L 463 846 L 463 848 L 462 849 L 457 849 L 457 850 L 456 851 L 456 854 L 457 855 L 457 857 L 456 858 L 452 858 L 450 860 L 450 863 L 451 864 L 451 866 L 449 868 L 445 868 L 444 869 L 444 871 L 445 872 L 445 873 L 446 874 L 446 875 L 445 876 L 444 876 L 443 877 L 439 877 L 439 878 L 438 879 L 438 880 L 439 881 L 439 882 L 440 883 L 440 884 L 438 886 L 433 886 L 433 887 L 432 888 L 432 889 L 433 890 L 433 891 L 434 892 L 434 893 L 432 895 L 428 895 L 427 896 L 427 899 L 428 900 L 428 902 L 426 904 L 422 904 L 421 905 L 421 909 L 422 910 L 422 911 L 420 913 L 419 913 L 418 914 L 417 913 L 415 915 L 415 918 L 416 919 L 416 921 L 415 922 L 414 922 L 413 923 L 409 923 L 409 929 L 408 930 L 407 930 L 405 932 L 405 933 L 403 935 L 403 936 L 401 938 L 401 939 L 399 941 L 399 942 L 398 943 L 398 944 L 396 946 L 396 947 L 394 949 L 394 950 L 393 951 L 393 952 L 392 953 L 392 957 L 395 960 L 395 961 L 396 962 L 396 969 L 395 970 L 395 971 L 392 974 L 391 974 L 390 975 L 389 975 L 388 976 L 387 976 L 386 975 L 381 975 L 380 974 L 377 974 L 376 973 L 375 973 L 374 972 L 373 972 L 370 969 L 369 969 L 367 967 L 366 967 L 365 966 L 365 965 L 361 961 L 361 960 L 360 959 L 360 958 L 359 957 L 359 955 L 358 954 L 358 950 L 359 949 L 359 948 L 363 944 L 364 944 L 365 943 L 370 943 L 371 944 L 373 944 L 374 945 L 375 945 L 376 944 L 377 944 L 378 943 L 378 942 L 380 940 L 380 939 L 382 937 L 382 936 L 384 934 L 384 933 L 385 932 L 385 931 L 387 929 L 387 928 L 389 926 L 389 925 L 390 924 L 390 923 L 395 918 L 395 916 L 394 915 L 394 914 L 395 913 L 398 913 L 399 912 L 399 911 L 401 909 L 401 907 L 400 906 L 400 905 L 401 904 L 404 904 L 404 903 L 406 901 L 406 900 L 407 899 L 407 898 L 406 897 L 406 896 L 407 895 L 410 895 L 410 894 L 412 892 L 412 891 L 413 890 L 413 889 L 412 888 L 412 887 L 411 886 L 412 885 L 413 885 L 414 886 L 415 886 L 417 884 L 417 883 L 419 881 L 419 880 L 418 879 L 418 878 L 417 877 L 418 876 L 419 876 L 420 877 L 421 877 L 422 876 L 422 875 L 424 873 L 424 872 L 425 871 L 424 870 L 424 869 L 425 868 L 426 868 L 427 867 L 428 867 L 428 866 L 430 864 L 430 863 L 431 862 L 430 861 L 430 860 L 429 859 L 430 858 L 431 858 L 432 859 L 436 855 L 436 851 L 435 850 L 436 849 L 439 849 L 441 847 L 441 846 L 442 845 L 442 842 L 441 841 L 442 840 L 445 840 L 446 839 L 446 838 L 448 836 L 448 834 L 447 833 L 447 832 L 448 831 L 451 831 L 452 830 L 452 829 L 454 827 L 454 825 L 452 823 L 453 822 L 457 822 L 457 821 L 459 819 L 459 818 L 460 817 L 460 816 L 459 815 L 459 814 L 460 813 L 462 813 L 465 810 L 465 809 L 466 808 L 466 807 L 464 805 L 464 804 L 465 803 L 466 804 L 468 804 L 470 802 L 470 801 L 471 800 L 471 799 L 472 798 L 470 796 L 470 795 L 471 794 L 472 795 L 474 795 L 475 794 L 475 793 L 477 791 L 477 788 L 476 787 L 476 786 L 477 785 L 478 786 L 480 786 L 480 785 L 483 782 L 483 779 L 482 778 L 482 777 L 483 776 L 484 777 L 486 777 L 487 776 L 487 775 L 490 772 L 490 771 L 488 769 L 489 768 L 491 768 L 492 769 L 493 769 L 498 764 L 497 763 L 497 762 L 498 761 L 501 761 L 503 759 L 504 759 Z" fill="#cccccc" stroke="black" stroke-width="1" />
<path d="M 431 891 Z" fill="#cccccc" stroke="black" stroke-width="1" />
<path d="M 460 847 Z" fill="#cccccc" stroke="black" stroke-width="1" />
<path d="M 466 838 Z" fill="#cccccc" stroke="black" stroke-width="1" />
<path d="M 529 709 L 530 708 L 532 708 L 533 709 L 535 709 L 536 710 L 538 710 L 539 711 L 540 711 L 541 712 L 542 712 L 543 713 L 544 713 L 545 714 L 548 714 L 549 715 L 551 715 L 552 716 L 553 716 L 554 717 L 556 717 L 557 718 L 558 718 L 560 720 L 562 720 L 563 721 L 565 721 L 566 722 L 568 722 L 569 723 L 571 723 L 572 724 L 573 724 L 574 725 L 576 725 L 578 727 L 579 727 L 580 728 L 582 728 L 583 729 L 585 729 L 586 730 L 588 730 L 589 731 L 590 731 L 591 732 L 593 732 L 594 733 L 595 733 L 596 734 L 597 734 L 598 735 L 618 735 L 620 737 L 620 741 L 619 742 L 619 743 L 620 743 L 621 744 L 622 744 L 623 745 L 624 745 L 625 746 L 627 746 L 628 747 L 629 747 L 630 748 L 631 748 L 632 749 L 634 749 L 635 750 L 636 750 L 637 751 L 639 751 L 640 752 L 641 752 L 642 753 L 644 753 L 645 754 L 646 754 L 647 755 L 649 755 L 650 756 L 651 756 L 652 757 L 653 757 L 654 758 L 656 758 L 657 759 L 658 759 L 659 760 L 661 760 L 662 761 L 663 761 L 664 762 L 665 762 L 666 763 L 668 763 L 669 764 L 670 764 L 671 765 L 672 765 L 673 766 L 675 766 L 676 767 L 677 767 L 678 768 L 680 768 L 682 770 L 682 776 L 680 778 L 680 779 L 679 780 L 679 781 L 678 782 L 678 785 L 677 786 L 677 789 L 676 790 L 676 791 L 675 792 L 675 793 L 674 794 L 674 795 L 673 796 L 673 800 L 671 802 L 668 802 L 667 801 L 666 801 L 665 800 L 663 800 L 662 799 L 661 799 L 660 798 L 658 798 L 657 797 L 656 797 L 655 796 L 653 796 L 652 795 L 651 795 L 650 794 L 648 794 L 647 793 L 646 793 L 645 792 L 644 792 L 643 791 L 641 791 L 640 790 L 639 790 L 638 789 L 637 789 L 636 788 L 635 788 L 634 787 L 632 787 L 631 786 L 630 786 L 629 785 L 628 785 L 627 784 L 626 784 L 625 783 L 623 783 L 622 782 L 621 782 L 620 781 L 619 781 L 618 780 L 616 780 L 615 779 L 614 779 L 613 778 L 611 778 L 610 777 L 609 777 L 608 776 L 606 776 L 605 775 L 604 776 L 604 778 L 602 780 L 601 780 L 600 779 L 599 779 L 593 773 L 592 773 L 585 766 L 583 766 L 582 765 L 580 765 L 579 764 L 577 764 L 576 763 L 575 763 L 574 762 L 573 762 L 572 761 L 571 761 L 570 760 L 569 760 L 568 759 L 566 759 L 565 758 L 562 758 L 561 757 L 560 757 L 559 756 L 557 756 L 556 755 L 555 755 L 554 754 L 553 754 L 552 753 L 551 753 L 550 752 L 549 752 L 548 751 L 545 751 L 544 750 L 543 750 L 542 749 L 540 749 L 539 748 L 538 748 L 537 747 L 536 747 L 535 746 L 534 746 L 533 745 L 532 745 L 531 744 L 529 744 L 528 743 L 526 743 L 525 742 L 523 742 L 522 741 L 521 741 L 520 740 L 519 740 L 518 739 L 518 738 L 516 736 L 516 735 L 515 734 L 515 729 L 516 728 L 516 724 L 517 723 L 517 722 L 518 721 L 519 721 L 519 716 L 521 714 L 522 714 L 522 713 L 523 712 L 523 711 L 524 710 L 526 710 L 527 709 Z" fill="#cccccc" stroke="black" stroke-width="1" />
<path d="M 683 668 L 684 667 L 685 667 L 686 668 L 685 669 L 684 669 Z" fill="#cccccc" stroke="black" stroke-width="1" />
<path d="M 1066 667 L 1067 666 L 1070 666 L 1071 667 L 1076 667 L 1079 670 L 1080 670 L 1081 671 L 1085 671 L 1088 674 L 1089 674 L 1091 676 L 1091 678 L 1092 679 L 1092 686 L 1091 687 L 1091 689 L 1090 690 L 1090 691 L 1088 693 L 1085 693 L 1083 695 L 1083 697 L 1082 698 L 1082 699 L 1083 700 L 1083 701 L 1084 702 L 1084 705 L 1083 706 L 1083 707 L 1082 708 L 1082 710 L 1080 712 L 1079 711 L 1077 711 L 1075 713 L 1075 715 L 1074 716 L 1074 718 L 1075 719 L 1075 725 L 1074 726 L 1074 727 L 1073 728 L 1073 729 L 1072 730 L 1070 730 L 1069 729 L 1067 731 L 1067 732 L 1066 733 L 1066 737 L 1067 738 L 1067 741 L 1066 742 L 1066 744 L 1065 745 L 1065 748 L 1064 749 L 1065 750 L 1065 768 L 1066 769 L 1066 772 L 1064 774 L 1063 774 L 1062 773 L 1060 773 L 1059 772 L 1059 770 L 1058 769 L 1058 762 L 1057 761 L 1057 757 L 1056 758 L 1056 760 L 1055 761 L 1055 764 L 1052 767 L 1052 768 L 1051 769 L 1051 771 L 1050 772 L 1050 778 L 1049 779 L 1049 780 L 1048 781 L 1048 782 L 1047 783 L 1047 784 L 1046 785 L 1046 786 L 1045 787 L 1045 789 L 1044 790 L 1044 792 L 1043 793 L 1043 794 L 1042 795 L 1042 797 L 1041 798 L 1041 799 L 1040 800 L 1040 801 L 1039 802 L 1039 803 L 1038 804 L 1038 805 L 1037 806 L 1037 808 L 1036 809 L 1036 810 L 1035 811 L 1035 812 L 1034 813 L 1034 816 L 1033 817 L 1033 819 L 1032 820 L 1032 821 L 1031 822 L 1031 824 L 1030 825 L 1030 827 L 1029 828 L 1029 830 L 1028 831 L 1028 833 L 1027 834 L 1025 834 L 1024 833 L 1020 833 L 1019 834 L 1018 834 L 1016 832 L 1016 830 L 1014 828 L 1012 828 L 1011 827 L 1010 827 L 1008 825 L 1007 825 L 1006 824 L 1004 824 L 1002 822 L 1001 822 L 1000 821 L 999 821 L 998 820 L 997 820 L 996 819 L 995 819 L 994 818 L 993 818 L 992 817 L 991 817 L 990 816 L 989 816 L 988 815 L 990 813 L 990 812 L 992 810 L 992 809 L 994 807 L 994 806 L 996 804 L 996 803 L 999 800 L 999 799 L 1000 798 L 1000 797 L 1001 796 L 1001 795 L 1002 794 L 1002 793 L 1003 792 L 1003 791 L 1004 790 L 1004 788 L 1006 786 L 1006 785 L 1007 784 L 1007 783 L 1008 782 L 1008 781 L 1009 780 L 1009 779 L 1010 778 L 1010 777 L 1012 775 L 1012 774 L 1013 773 L 1013 772 L 1014 771 L 1014 770 L 1015 769 L 1015 768 L 1016 767 L 1016 765 L 1017 764 L 1017 763 L 1022 758 L 1022 757 L 1023 756 L 1023 755 L 1024 754 L 1024 752 L 1025 751 L 1025 750 L 1026 749 L 1026 748 L 1027 747 L 1027 746 L 1028 745 L 1028 744 L 1027 745 L 1026 745 L 1023 748 L 1022 748 L 1019 751 L 1018 751 L 1017 752 L 1014 752 L 1011 749 L 1011 748 L 1014 745 L 1015 745 L 1018 742 L 1019 742 L 1023 738 L 1024 738 L 1029 733 L 1030 733 L 1031 732 L 1031 731 L 1033 729 L 1033 728 L 1038 723 L 1039 723 L 1041 721 L 1041 720 L 1042 719 L 1042 717 L 1040 715 L 1040 712 L 1042 710 L 1042 709 L 1047 704 L 1048 704 L 1050 702 L 1050 701 L 1051 700 L 1051 699 L 1050 699 L 1048 697 L 1048 695 L 1049 694 L 1049 693 L 1050 692 L 1050 691 L 1054 687 L 1055 687 L 1056 686 L 1057 686 L 1058 685 L 1058 684 L 1059 683 L 1059 682 L 1060 681 L 1059 681 L 1057 679 L 1057 676 L 1058 675 L 1058 674 L 1059 673 L 1059 672 L 1062 669 L 1063 669 L 1065 667 Z" fill="#cccccc" stroke="black" stroke-width="1" />
<path d="M 1057 753 Z" fill="#cccccc" stroke="black" stroke-width="1" />
<path d="M 685 667 L 686 666 L 687 666 L 688 667 L 687 668 L 686 668 Z" fill="#cccccc" stroke="black" stroke-width="1" />
<path d="M 402 653 L 403 652 L 404 653 L 403 654 Z" fill="#cccccc" stroke="black" stroke-width="1" />
<path d="M 440 641 L 441 640 L 444 640 L 445 641 L 443 643 L 443 644 L 442 645 L 442 646 L 441 647 L 439 647 L 436 650 L 436 651 L 435 652 L 435 655 L 434 656 L 433 656 L 432 655 L 431 655 L 428 658 L 428 663 L 427 664 L 426 663 L 425 663 L 424 662 L 422 662 L 420 664 L 419 664 L 419 669 L 418 670 L 416 668 L 415 668 L 414 667 L 412 669 L 411 669 L 410 670 L 410 672 L 411 673 L 409 675 L 408 675 L 406 673 L 404 673 L 402 675 L 401 675 L 401 680 L 400 681 L 398 679 L 397 679 L 396 678 L 395 679 L 394 679 L 392 681 L 392 685 L 391 686 L 390 686 L 388 684 L 386 684 L 385 685 L 384 685 L 383 686 L 383 689 L 384 690 L 382 692 L 381 691 L 380 691 L 378 689 L 377 690 L 376 690 L 374 692 L 374 696 L 373 697 L 372 697 L 371 696 L 370 696 L 369 695 L 368 695 L 367 696 L 366 696 L 365 697 L 365 701 L 364 702 L 362 702 L 360 700 L 359 700 L 357 702 L 356 702 L 356 707 L 355 708 L 354 708 L 353 707 L 352 707 L 351 706 L 350 706 L 349 707 L 348 707 L 347 708 L 347 712 L 346 713 L 343 713 L 341 711 L 340 712 L 339 712 L 337 714 L 337 715 L 338 716 L 335 719 L 334 718 L 333 718 L 332 717 L 330 717 L 328 719 L 328 723 L 327 724 L 325 724 L 324 723 L 323 723 L 322 722 L 321 723 L 320 723 L 319 724 L 319 726 L 316 729 L 315 729 L 314 728 L 313 728 L 312 729 L 311 729 L 307 733 L 305 733 L 303 735 L 302 735 L 301 736 L 300 736 L 298 738 L 297 738 L 296 739 L 295 739 L 293 741 L 292 741 L 291 742 L 290 742 L 288 744 L 287 744 L 286 745 L 285 745 L 284 746 L 283 746 L 281 748 L 280 748 L 279 749 L 278 749 L 276 751 L 275 751 L 274 752 L 273 752 L 272 753 L 271 753 L 269 755 L 268 755 L 267 756 L 266 756 L 264 758 L 263 758 L 262 759 L 261 759 L 259 761 L 258 761 L 257 762 L 256 762 L 251 767 L 251 772 L 253 774 L 253 776 L 254 777 L 254 785 L 252 787 L 245 787 L 231 773 L 231 772 L 230 771 L 230 770 L 227 767 L 227 766 L 226 765 L 226 764 L 225 763 L 225 760 L 224 759 L 224 755 L 223 754 L 223 752 L 222 751 L 222 749 L 221 748 L 221 743 L 224 740 L 225 740 L 226 739 L 228 739 L 229 740 L 230 740 L 238 748 L 238 749 L 245 749 L 246 748 L 247 748 L 249 746 L 250 746 L 251 745 L 252 745 L 253 744 L 254 744 L 256 742 L 257 742 L 258 741 L 259 741 L 261 739 L 262 739 L 263 738 L 264 738 L 265 737 L 266 737 L 268 735 L 269 735 L 270 734 L 271 734 L 272 733 L 273 733 L 275 731 L 276 731 L 277 730 L 278 730 L 279 729 L 280 729 L 282 727 L 283 727 L 284 726 L 285 726 L 287 724 L 288 724 L 289 723 L 290 723 L 292 721 L 293 721 L 294 720 L 295 720 L 297 718 L 299 718 L 300 717 L 301 717 L 302 716 L 302 715 L 303 714 L 306 714 L 307 713 L 309 713 L 311 711 L 311 708 L 312 707 L 314 709 L 315 709 L 316 708 L 317 708 L 318 707 L 319 707 L 321 705 L 321 704 L 320 703 L 320 702 L 321 701 L 323 703 L 326 703 L 327 702 L 328 702 L 330 700 L 330 697 L 331 696 L 333 698 L 334 698 L 335 697 L 336 697 L 337 696 L 338 696 L 339 695 L 339 692 L 340 691 L 342 693 L 343 693 L 345 691 L 346 691 L 347 690 L 348 690 L 348 686 L 349 685 L 351 687 L 353 687 L 354 686 L 355 686 L 358 683 L 357 682 L 357 680 L 358 679 L 361 682 L 362 681 L 363 681 L 364 680 L 365 680 L 367 678 L 367 677 L 366 676 L 366 675 L 367 674 L 369 676 L 371 676 L 372 675 L 373 675 L 374 674 L 375 674 L 376 673 L 376 671 L 375 670 L 375 669 L 376 668 L 379 671 L 380 671 L 382 669 L 383 669 L 384 668 L 385 668 L 385 666 L 384 665 L 384 664 L 385 663 L 387 665 L 390 665 L 391 664 L 392 664 L 394 662 L 394 660 L 393 659 L 394 658 L 395 658 L 397 660 L 398 660 L 399 659 L 400 659 L 402 657 L 403 657 L 403 654 L 404 653 L 406 655 L 407 654 L 408 654 L 409 653 L 410 653 L 412 651 L 412 649 L 411 648 L 412 647 L 413 647 L 415 649 L 417 649 L 418 648 L 421 648 L 421 647 L 422 646 L 421 645 L 421 644 L 422 643 L 423 643 L 425 645 L 427 645 L 428 644 L 430 644 L 431 643 L 432 643 L 432 642 L 433 641 L 435 641 L 436 642 L 437 641 Z" fill="#cccccc" stroke="black" stroke-width="1" />
<path d="M 252 758 Z" fill="#cccccc" stroke="black" stroke-width="1" />
<path d="M 272 746 Z" fill="#cccccc" stroke="black" stroke-width="1" />
<path d="M 274 745 Z" fill="#cccccc" stroke="black" stroke-width="1" />
<path d="M 284 739 Z" fill="#cccccc" stroke="black" stroke-width="1" />
<path d="M 289 736 Z" fill="#cccccc" stroke="black" stroke-width="1" />
<path d="M 299 730 Z" fill="#cccccc" stroke="black" stroke-width="1" />
<path d="M 250 632 L 251 631 L 252 632 L 251 633 Z" fill="#cccccc" stroke="black" stroke-width="1" />
<path d="M 891 604 L 892 603 L 905 603 L 906 604 L 909 604 L 910 605 L 912 605 L 913 606 L 915 606 L 916 607 L 917 607 L 918 608 L 919 608 L 920 609 L 921 609 L 925 613 L 926 613 L 931 618 L 931 619 L 934 622 L 934 623 L 936 625 L 936 626 L 937 627 L 937 628 L 938 629 L 938 631 L 939 632 L 939 635 L 940 636 L 940 652 L 939 653 L 939 656 L 938 657 L 938 659 L 937 660 L 937 661 L 936 662 L 936 663 L 935 664 L 935 665 L 932 668 L 932 669 L 925 676 L 924 676 L 922 678 L 921 678 L 919 680 L 918 680 L 917 681 L 915 681 L 914 682 L 913 682 L 912 683 L 909 683 L 908 684 L 892 684 L 891 683 L 888 683 L 887 682 L 885 682 L 884 681 L 883 681 L 882 680 L 881 680 L 880 679 L 879 679 L 877 677 L 876 677 L 874 675 L 873 675 L 868 670 L 868 669 L 865 666 L 865 665 L 863 663 L 863 662 L 862 661 L 862 660 L 861 659 L 861 657 L 860 656 L 860 655 L 859 654 L 859 650 L 858 649 L 858 636 L 859 635 L 859 632 L 860 631 L 860 629 L 861 628 L 861 627 L 862 626 L 862 625 L 863 624 L 863 623 L 864 622 L 864 621 L 867 618 L 867 617 L 871 613 L 872 613 L 876 609 L 877 609 L 878 608 L 879 608 L 880 607 L 881 607 L 882 606 L 883 606 L 884 605 L 886 605 L 887 604 Z" fill="#cccccc" stroke="black" stroke-width="1" />
<path d="M 894 629 L 893 630 L 892 630 L 889 633 L 888 633 L 888 634 L 886 636 L 886 637 L 885 638 L 885 641 L 884 642 L 884 644 L 885 645 L 885 648 L 886 649 L 886 651 L 888 653 L 888 654 L 890 656 L 891 656 L 892 657 L 893 657 L 894 658 L 896 658 L 897 659 L 902 659 L 903 658 L 905 658 L 906 657 L 907 657 L 908 656 L 909 656 L 911 654 L 911 653 L 913 651 L 913 650 L 914 649 L 914 646 L 915 645 L 915 643 L 914 642 L 914 639 L 913 638 L 913 637 L 912 636 L 912 635 L 908 631 L 907 631 L 906 630 L 905 630 L 904 629 Z" fill="#cccccc" stroke="black" stroke-width="1" />
<path d="M 632 567 L 633 566 L 634 567 L 633 568 Z" fill="#cccccc" stroke="black" stroke-width="1" />
<path d="M 808 554 L 810 556 L 810 557 L 811 557 L 812 558 L 815 558 L 816 559 L 817 559 L 818 560 L 820 560 L 821 561 L 824 561 L 825 562 L 827 562 L 828 563 L 830 563 L 831 564 L 832 564 L 833 565 L 835 565 L 836 566 L 837 566 L 838 567 L 839 567 L 840 568 L 840 569 L 839 570 L 839 571 L 838 572 L 838 573 L 837 574 L 837 575 L 836 576 L 836 577 L 835 578 L 835 579 L 834 580 L 834 581 L 833 582 L 833 583 L 832 584 L 832 585 L 831 586 L 831 587 L 830 588 L 830 589 L 829 590 L 829 592 L 828 593 L 828 595 L 827 596 L 827 598 L 826 599 L 826 600 L 825 601 L 825 603 L 824 604 L 824 606 L 823 607 L 823 608 L 822 609 L 822 610 L 821 611 L 821 612 L 820 613 L 820 614 L 819 615 L 819 617 L 818 618 L 818 620 L 817 621 L 817 623 L 813 627 L 813 629 L 812 630 L 812 632 L 811 633 L 813 635 L 813 637 L 814 637 L 818 633 L 821 633 L 822 634 L 823 634 L 824 635 L 824 636 L 810 650 L 810 651 L 807 654 L 807 656 L 806 657 L 806 658 L 805 659 L 805 660 L 804 661 L 804 662 L 802 664 L 801 664 L 800 665 L 799 665 L 799 666 L 798 667 L 798 669 L 797 670 L 797 671 L 798 672 L 799 672 L 801 674 L 800 675 L 800 676 L 799 677 L 799 679 L 794 684 L 793 684 L 793 685 L 792 686 L 792 688 L 791 689 L 791 690 L 792 691 L 793 691 L 794 692 L 794 695 L 793 696 L 793 698 L 789 702 L 788 702 L 786 704 L 786 706 L 785 707 L 785 709 L 786 710 L 787 710 L 788 711 L 788 712 L 787 713 L 787 715 L 786 716 L 786 718 L 785 719 L 785 720 L 783 722 L 782 722 L 779 725 L 776 725 L 775 724 L 774 724 L 773 725 L 772 724 L 771 724 L 768 721 L 767 721 L 766 720 L 765 720 L 764 721 L 763 721 L 761 719 L 760 719 L 759 718 L 758 718 L 756 716 L 756 715 L 755 714 L 755 711 L 754 710 L 754 708 L 755 707 L 755 705 L 756 704 L 756 702 L 758 700 L 759 700 L 760 701 L 761 701 L 761 700 L 762 699 L 762 697 L 763 696 L 763 695 L 762 694 L 762 692 L 761 691 L 761 687 L 762 686 L 762 684 L 763 683 L 763 682 L 764 681 L 765 681 L 766 682 L 767 682 L 768 681 L 768 679 L 769 678 L 769 675 L 768 674 L 768 666 L 769 665 L 769 664 L 771 662 L 772 663 L 774 663 L 774 662 L 775 661 L 775 659 L 776 658 L 775 657 L 775 655 L 774 654 L 774 648 L 775 647 L 775 645 L 776 644 L 776 641 L 775 640 L 775 631 L 774 630 L 774 623 L 773 622 L 773 620 L 774 619 L 777 619 L 780 622 L 780 625 L 781 626 L 781 627 L 781 626 L 782 625 L 784 625 L 785 624 L 785 622 L 786 621 L 786 619 L 787 618 L 787 617 L 786 616 L 786 612 L 787 611 L 787 609 L 788 608 L 788 605 L 789 604 L 789 601 L 790 600 L 790 598 L 791 597 L 791 594 L 792 593 L 792 591 L 793 590 L 793 587 L 794 586 L 794 584 L 795 583 L 795 581 L 796 580 L 796 575 L 797 574 L 797 570 L 798 569 L 798 566 L 799 565 L 799 561 L 800 560 L 800 557 L 801 556 L 806 556 Z" fill="#cccccc" stroke="black" stroke-width="1" />
<path d="M 616 548 L 617 547 L 618 548 L 617 549 Z" fill="#cccccc" stroke="black" stroke-width="1" />
<path d="M 94 542 L 95 541 L 96 541 L 97 542 L 99 542 L 101 544 L 102 544 L 103 545 L 103 554 L 102 555 L 102 558 L 101 559 L 101 561 L 103 563 L 104 563 L 105 564 L 106 564 L 107 565 L 108 565 L 109 566 L 110 566 L 111 567 L 112 567 L 113 568 L 114 568 L 115 569 L 116 569 L 117 570 L 118 570 L 119 571 L 120 571 L 121 572 L 122 572 L 123 573 L 124 573 L 125 574 L 126 574 L 127 575 L 128 575 L 129 576 L 131 576 L 132 577 L 133 577 L 134 578 L 135 578 L 136 579 L 137 579 L 138 580 L 139 580 L 140 581 L 141 581 L 142 582 L 143 582 L 144 583 L 145 583 L 146 584 L 147 584 L 148 585 L 149 585 L 150 586 L 151 586 L 152 587 L 154 587 L 155 588 L 156 588 L 158 590 L 159 590 L 160 591 L 161 591 L 162 592 L 163 591 L 165 591 L 166 592 L 166 594 L 167 595 L 168 595 L 169 596 L 170 596 L 171 597 L 172 597 L 174 595 L 175 596 L 175 598 L 177 600 L 178 600 L 179 601 L 182 601 L 184 599 L 185 600 L 185 603 L 186 604 L 187 604 L 188 605 L 189 605 L 190 606 L 191 606 L 193 604 L 194 604 L 195 605 L 194 606 L 194 607 L 196 609 L 198 609 L 199 610 L 201 610 L 203 608 L 204 609 L 204 612 L 206 614 L 208 614 L 209 615 L 210 615 L 212 613 L 213 613 L 214 614 L 213 615 L 213 616 L 215 618 L 216 618 L 217 619 L 220 619 L 222 617 L 223 618 L 223 621 L 225 623 L 227 623 L 228 624 L 230 624 L 230 623 L 231 622 L 232 622 L 233 623 L 233 624 L 232 625 L 234 627 L 235 627 L 236 628 L 237 628 L 238 629 L 239 628 L 240 628 L 241 627 L 242 628 L 242 631 L 243 631 L 244 632 L 245 632 L 246 633 L 249 633 L 250 632 L 251 633 L 251 635 L 252 635 L 253 636 L 254 636 L 255 637 L 256 637 L 257 638 L 258 638 L 260 636 L 261 637 L 261 639 L 263 641 L 264 641 L 265 642 L 268 642 L 270 640 L 271 641 L 271 644 L 274 647 L 277 647 L 279 645 L 280 646 L 280 649 L 281 650 L 281 651 L 282 651 L 284 653 L 286 653 L 287 652 L 288 653 L 288 655 L 292 659 L 293 659 L 294 660 L 295 660 L 296 661 L 296 662 L 298 664 L 299 664 L 300 665 L 300 666 L 299 667 L 297 667 L 296 666 L 288 666 L 287 667 L 284 664 L 282 664 L 281 663 L 280 663 L 279 664 L 278 664 L 276 666 L 275 666 L 274 665 L 274 662 L 273 661 L 269 661 L 267 663 L 265 663 L 263 661 L 263 657 L 262 657 L 261 656 L 259 656 L 257 658 L 256 658 L 255 659 L 254 658 L 254 653 L 253 653 L 252 652 L 249 652 L 247 654 L 245 654 L 244 653 L 244 648 L 243 648 L 242 647 L 240 647 L 238 649 L 236 649 L 235 648 L 235 645 L 233 643 L 230 643 L 228 645 L 227 645 L 225 643 L 225 639 L 224 639 L 223 638 L 221 638 L 219 640 L 217 640 L 215 638 L 215 634 L 213 634 L 212 633 L 210 635 L 209 635 L 208 636 L 206 634 L 206 630 L 205 630 L 204 629 L 202 629 L 200 631 L 198 631 L 196 629 L 196 625 L 192 625 L 191 626 L 188 626 L 187 625 L 187 621 L 186 621 L 185 620 L 183 620 L 182 621 L 181 621 L 180 622 L 179 622 L 177 620 L 177 616 L 176 616 L 175 615 L 174 615 L 172 617 L 169 617 L 168 616 L 168 614 L 167 613 L 167 611 L 164 611 L 163 612 L 160 612 L 158 610 L 158 608 L 157 607 L 156 607 L 155 606 L 150 606 L 149 605 L 149 604 L 148 603 L 146 603 L 145 602 L 144 602 L 143 601 L 142 601 L 141 600 L 140 600 L 139 599 L 138 599 L 137 598 L 135 598 L 133 596 L 131 596 L 130 595 L 129 595 L 128 594 L 127 594 L 126 593 L 125 593 L 124 592 L 123 592 L 122 591 L 121 591 L 120 590 L 119 590 L 118 589 L 117 589 L 116 588 L 115 588 L 114 587 L 113 587 L 112 586 L 111 586 L 110 585 L 108 585 L 107 584 L 106 584 L 105 583 L 104 583 L 103 582 L 102 582 L 101 581 L 100 581 L 99 580 L 98 580 L 97 579 L 95 579 L 94 578 L 92 578 L 90 580 L 90 581 L 82 589 L 81 589 L 80 590 L 75 590 L 74 589 L 73 589 L 71 587 L 71 586 L 70 585 L 70 578 L 71 577 L 71 574 L 72 573 L 72 571 L 73 570 L 73 568 L 74 567 L 74 565 L 75 564 L 75 563 L 76 562 L 76 561 L 78 559 L 78 558 L 80 556 L 80 555 L 82 553 L 82 552 L 85 549 L 85 548 L 89 544 L 90 544 L 92 542 Z" fill="#cccccc" stroke="black" stroke-width="1" />
<path d="M 601 528 L 602 527 L 603 528 L 602 529 Z" fill="#cccccc" stroke="black" stroke-width="1" />
<path d="M 592 519 L 593 518 L 594 519 L 593 520 Z" fill="#cccccc" stroke="black" stroke-width="1" />
<path d="M 577 499 L 578 498 L 579 499 L 578 500 Z" fill="#cccccc" stroke="black" stroke-width="1" />
<path d="M 570 498 L 571 497 L 572 498 L 571 499 Z" fill="#cccccc" stroke="black" stroke-width="1" />
<path d="M 1128 481 L 1134 481 L 1135 482 L 1136 482 L 1141 487 L 1141 488 L 1142 489 L 1142 491 L 1143 492 L 1143 493 L 1144 494 L 1144 496 L 1145 497 L 1145 500 L 1146 501 L 1146 505 L 1147 506 L 1147 521 L 1146 522 L 1146 527 L 1145 528 L 1145 529 L 1141 533 L 1140 533 L 1139 534 L 1138 534 L 1137 535 L 1133 535 L 1127 529 L 1127 528 L 1126 527 L 1126 526 L 1125 525 L 1125 524 L 1124 523 L 1124 521 L 1123 520 L 1123 518 L 1114 518 L 1113 519 L 1105 519 L 1104 520 L 1096 520 L 1095 521 L 1088 521 L 1087 522 L 1079 522 L 1078 523 L 1071 523 L 1070 524 L 1062 524 L 1060 526 L 1059 525 L 1058 525 L 1057 524 L 1055 524 L 1054 525 L 1051 525 L 1051 527 L 1050 528 L 1049 528 L 1048 527 L 1048 526 L 1047 525 L 1044 525 L 1043 526 L 1041 526 L 1041 528 L 1039 530 L 1037 528 L 1037 527 L 1036 526 L 1035 527 L 1031 527 L 1030 528 L 1030 530 L 1029 531 L 1028 531 L 1027 530 L 1027 528 L 1020 528 L 1020 529 L 1019 530 L 1019 531 L 1018 532 L 1016 530 L 1016 529 L 1010 529 L 1009 530 L 1009 532 L 1007 534 L 1006 533 L 1006 531 L 1005 530 L 1001 530 L 1000 531 L 999 531 L 998 532 L 998 534 L 997 535 L 995 533 L 995 532 L 994 531 L 993 532 L 988 532 L 988 534 L 986 536 L 985 535 L 985 534 L 984 533 L 979 533 L 978 534 L 977 534 L 977 537 L 976 538 L 975 537 L 975 536 L 974 535 L 974 534 L 969 534 L 968 535 L 967 535 L 967 536 L 966 537 L 966 538 L 965 539 L 964 538 L 964 537 L 962 535 L 961 536 L 956 536 L 956 539 L 955 540 L 954 540 L 953 539 L 953 537 L 947 537 L 946 538 L 945 538 L 945 541 L 944 542 L 943 541 L 943 540 L 942 539 L 942 538 L 937 538 L 936 539 L 935 539 L 935 541 L 933 543 L 932 542 L 932 541 L 931 540 L 930 540 L 929 539 L 924 539 L 924 541 L 923 542 L 922 542 L 921 541 L 921 540 L 920 539 L 913 539 L 912 540 L 911 540 L 909 538 L 904 538 L 903 537 L 901 537 L 900 536 L 902 534 L 903 534 L 905 532 L 908 532 L 909 531 L 911 531 L 914 528 L 914 527 L 915 526 L 917 526 L 919 528 L 920 528 L 921 527 L 922 527 L 922 526 L 923 525 L 923 523 L 924 522 L 927 522 L 930 525 L 931 525 L 932 524 L 933 524 L 933 522 L 936 519 L 937 520 L 938 520 L 940 522 L 940 523 L 943 523 L 943 522 L 944 521 L 944 520 L 946 518 L 948 518 L 951 521 L 951 522 L 952 522 L 953 521 L 954 521 L 954 520 L 955 519 L 955 518 L 956 517 L 959 517 L 962 520 L 964 520 L 965 519 L 965 517 L 967 515 L 969 515 L 973 519 L 974 519 L 975 518 L 975 517 L 978 514 L 980 514 L 983 517 L 986 517 L 986 515 L 988 513 L 991 513 L 994 516 L 996 516 L 996 515 L 997 514 L 997 513 L 999 511 L 1000 511 L 1001 512 L 1002 512 L 1005 515 L 1006 514 L 1007 514 L 1007 513 L 1008 512 L 1008 511 L 1009 510 L 1011 510 L 1012 511 L 1013 511 L 1015 513 L 1017 513 L 1018 512 L 1018 511 L 1020 509 L 1022 509 L 1023 510 L 1024 510 L 1026 512 L 1027 512 L 1028 511 L 1028 510 L 1030 508 L 1033 508 L 1036 511 L 1038 511 L 1038 510 L 1041 507 L 1044 507 L 1047 510 L 1048 510 L 1051 507 L 1055 507 L 1056 508 L 1060 508 L 1061 507 L 1062 507 L 1063 506 L 1064 507 L 1066 507 L 1067 506 L 1075 506 L 1076 505 L 1083 505 L 1084 504 L 1092 504 L 1093 503 L 1100 503 L 1101 502 L 1108 502 L 1109 501 L 1116 501 L 1117 500 L 1120 500 L 1121 499 L 1121 492 L 1122 491 L 1122 488 L 1123 487 L 1123 486 L 1124 485 L 1124 484 L 1125 483 L 1126 483 Z" fill="#cccccc" stroke="black" stroke-width="1" />
<path d="M 559 482 L 560 481 L 561 482 L 560 483 Z" fill="#cccccc" stroke="black" stroke-width="1" />
<path d="M 542 472 L 545 475 L 547 475 L 549 477 L 549 478 L 550 479 L 551 479 L 553 481 L 554 481 L 555 482 L 556 482 L 557 483 L 557 484 L 557 483 L 558 482 L 559 482 L 560 483 L 559 484 L 559 486 L 561 488 L 562 488 L 563 489 L 563 491 L 564 490 L 567 490 L 568 489 L 570 489 L 571 490 L 568 493 L 568 494 L 571 497 L 570 498 L 571 499 L 572 498 L 574 500 L 574 501 L 575 501 L 577 499 L 578 500 L 578 501 L 576 503 L 577 504 L 577 505 L 582 510 L 582 511 L 585 508 L 586 508 L 587 509 L 583 513 L 584 513 L 586 515 L 586 516 L 590 520 L 590 521 L 592 519 L 593 520 L 593 521 L 591 523 L 592 523 L 594 525 L 594 526 L 598 530 L 598 529 L 599 528 L 601 528 L 602 529 L 601 530 L 601 531 L 600 532 L 600 533 L 601 534 L 601 535 L 604 538 L 606 538 L 607 539 L 606 540 L 609 537 L 610 538 L 610 539 L 608 541 L 608 543 L 609 544 L 609 545 L 612 548 L 616 548 L 617 549 L 617 550 L 615 552 L 617 554 L 617 555 L 620 558 L 622 558 L 623 557 L 625 557 L 626 558 L 624 560 L 624 561 L 623 562 L 625 564 L 625 565 L 628 568 L 629 568 L 630 569 L 629 568 L 630 567 L 632 567 L 633 568 L 633 569 L 632 570 L 632 571 L 631 572 L 634 575 L 634 576 L 636 578 L 637 577 L 640 577 L 641 578 L 641 579 L 640 580 L 640 581 L 639 582 L 641 584 L 641 585 L 642 585 L 644 587 L 646 587 L 648 589 L 648 591 L 652 595 L 652 596 L 656 600 L 656 601 L 661 606 L 661 607 L 666 612 L 666 613 L 670 617 L 670 618 L 675 623 L 675 624 L 680 629 L 680 630 L 686 636 L 686 637 L 689 637 L 691 639 L 692 638 L 693 638 L 694 637 L 695 637 L 698 634 L 699 634 L 701 632 L 702 632 L 703 633 L 704 633 L 707 636 L 707 637 L 708 638 L 706 640 L 707 639 L 708 640 L 708 642 L 707 643 L 707 646 L 706 647 L 706 648 L 705 649 L 704 649 L 705 650 L 704 651 L 704 652 L 702 654 L 702 655 L 697 660 L 696 660 L 691 665 L 690 665 L 688 667 L 687 666 L 686 666 L 685 667 L 684 667 L 683 668 L 684 669 L 683 670 L 682 670 L 680 668 L 679 669 L 680 670 L 679 671 L 667 671 L 666 670 L 665 670 L 662 667 L 662 665 L 663 664 L 663 663 L 668 658 L 669 658 L 670 657 L 670 650 L 668 648 L 668 647 L 665 644 L 665 643 L 661 639 L 661 638 L 657 634 L 657 633 L 653 629 L 653 628 L 648 623 L 648 622 L 644 618 L 644 617 L 640 613 L 640 612 L 636 608 L 636 607 L 635 606 L 634 606 L 633 605 L 633 604 L 632 603 L 632 602 L 631 601 L 631 600 L 629 598 L 628 598 L 627 599 L 626 599 L 625 598 L 625 594 L 626 593 L 623 590 L 623 589 L 622 589 L 621 588 L 620 589 L 619 589 L 618 590 L 616 588 L 616 586 L 617 585 L 618 586 L 617 585 L 617 582 L 614 579 L 611 579 L 610 580 L 609 580 L 608 579 L 608 576 L 609 575 L 609 572 L 606 569 L 604 569 L 603 570 L 601 570 L 600 569 L 600 567 L 601 566 L 601 565 L 602 564 L 601 563 L 601 562 L 598 559 L 597 559 L 596 560 L 593 560 L 592 559 L 592 557 L 593 556 L 593 555 L 594 554 L 593 553 L 593 552 L 590 549 L 589 550 L 588 550 L 587 551 L 585 551 L 584 550 L 584 547 L 585 546 L 585 545 L 586 544 L 586 543 L 583 540 L 581 540 L 579 538 L 579 539 L 580 540 L 579 541 L 578 541 L 576 539 L 576 538 L 577 537 L 577 536 L 578 535 L 578 534 L 576 532 L 576 531 L 575 530 L 573 530 L 572 529 L 572 530 L 571 531 L 570 531 L 569 530 L 570 529 L 569 530 L 568 529 L 568 528 L 570 526 L 571 527 L 570 526 L 570 523 L 567 520 L 566 520 L 565 521 L 562 521 L 561 520 L 561 517 L 562 516 L 562 513 L 560 511 L 557 511 L 556 512 L 554 512 L 553 511 L 553 508 L 554 507 L 554 506 L 555 505 L 555 504 L 554 503 L 554 502 L 552 500 L 551 501 L 548 501 L 547 500 L 547 497 L 548 496 L 548 495 L 549 494 L 549 493 L 548 492 L 548 491 L 547 490 L 547 489 L 543 485 L 543 481 L 542 480 L 542 478 L 541 477 L 541 476 L 540 475 L 540 474 Z" fill="#cccccc" stroke="black" stroke-width="1" />
<path d="M 673 668 L 673 669 L 674 669 Z" fill="#cccccc" stroke="black" stroke-width="1" />
<path d="M 622 560 Z" fill="#cccccc" stroke="black" stroke-width="1" />
<path d="M 614 550 Z" fill="#cccccc" stroke="black" stroke-width="1" />
<path d="M 563 518 L 563 519 Z" fill="#cccccc" stroke="black" stroke-width="1" />
<path d="M 558 508 L 557 509 Z" fill="#cccccc" stroke="black" stroke-width="1" />
<path d="M 565 492 L 566 492 Z" fill="#cccccc" stroke="black" stroke-width="1" />
<path d="M 235 467 L 236 466 L 252 466 L 253 467 L 255 467 L 256 468 L 258 468 L 259 469 L 260 469 L 261 470 L 262 470 L 263 471 L 264 471 L 265 472 L 266 472 L 269 475 L 270 475 L 275 480 L 275 481 L 278 484 L 278 485 L 279 486 L 279 487 L 280 488 L 280 489 L 281 490 L 281 491 L 282 492 L 282 494 L 283 495 L 283 499 L 284 500 L 284 511 L 283 512 L 283 515 L 282 516 L 282 518 L 281 519 L 281 521 L 280 522 L 280 523 L 279 524 L 279 525 L 278 526 L 278 527 L 274 531 L 274 532 L 270 536 L 269 536 L 266 539 L 265 539 L 263 541 L 262 541 L 261 542 L 260 542 L 259 543 L 257 543 L 256 544 L 254 544 L 253 545 L 248 545 L 247 546 L 239 546 L 238 545 L 234 545 L 233 544 L 230 544 L 229 543 L 227 543 L 226 542 L 225 542 L 224 541 L 223 541 L 221 539 L 220 539 L 217 536 L 216 536 L 212 532 L 212 531 L 209 528 L 209 527 L 208 526 L 208 525 L 206 523 L 206 521 L 205 520 L 205 519 L 204 518 L 204 515 L 203 514 L 203 498 L 204 497 L 204 495 L 205 494 L 205 492 L 206 491 L 206 490 L 207 489 L 207 488 L 208 487 L 208 486 L 209 485 L 209 484 L 212 481 L 212 480 L 216 476 L 217 476 L 220 473 L 221 473 L 223 471 L 224 471 L 225 470 L 226 470 L 227 469 L 228 469 L 229 468 L 231 468 L 232 467 Z" fill="#cccccc" stroke="black" stroke-width="1" />
<path d="M 239 491 L 238 492 L 237 492 L 236 493 L 235 493 L 231 497 L 231 498 L 229 500 L 229 503 L 228 504 L 228 507 L 229 508 L 229 511 L 230 512 L 230 513 L 231 514 L 231 515 L 233 517 L 234 517 L 236 519 L 237 519 L 238 520 L 241 520 L 242 521 L 244 521 L 245 520 L 248 520 L 249 519 L 251 519 L 256 514 L 256 513 L 257 512 L 257 511 L 258 510 L 258 501 L 257 500 L 257 499 L 256 498 L 256 497 L 252 493 L 251 493 L 250 492 L 249 492 L 248 491 Z" fill="#cccccc" stroke="black" stroke-width="1" />
<path d="M 527 440 L 528 439 L 529 440 L 528 441 Z" fill="#cccccc" stroke="black" stroke-width="1" />
<path d="M 887 437 L 888 436 L 889 436 L 890 437 L 889 438 L 888 438 Z" fill="#cccccc" stroke="black" stroke-width="1" />
<path d="M 872 426 L 873 425 L 874 426 L 873 427 Z" fill="#cccccc" stroke="black" stroke-width="1" />
<path d="M 871 425 L 872 424 L 873 425 L 872 426 Z" fill="#cccccc" stroke="black" stroke-width="1" />
<path d="M 544 415 L 545 414 L 546 415 L 545 416 Z" fill="#cccccc" stroke="black" stroke-width="1" />
<path d="M 550 407 L 551 406 L 552 407 L 551 408 Z" fill="#cccccc" stroke="black" stroke-width="1" />
<path d="M 568 364 L 569 364 L 570 365 L 570 366 L 569 367 L 569 369 L 568 370 L 568 371 L 567 372 L 567 374 L 566 375 L 566 376 L 565 377 L 566 378 L 566 380 L 565 381 L 564 380 L 563 381 L 563 382 L 562 383 L 562 386 L 561 387 L 563 389 L 563 390 L 562 391 L 561 390 L 558 390 L 558 391 L 557 392 L 557 394 L 556 395 L 556 396 L 558 398 L 558 399 L 557 400 L 556 399 L 555 399 L 554 398 L 552 400 L 552 401 L 550 403 L 550 404 L 551 405 L 551 406 L 550 407 L 547 407 L 547 408 L 545 410 L 545 411 L 544 412 L 544 413 L 545 414 L 544 415 L 542 415 L 539 418 L 539 419 L 538 420 L 538 421 L 540 423 L 539 424 L 538 424 L 537 423 L 536 423 L 534 425 L 534 426 L 533 427 L 533 430 L 534 431 L 533 432 L 532 432 L 531 431 L 530 431 L 529 432 L 529 433 L 527 435 L 527 438 L 528 439 L 527 440 L 524 440 L 521 443 L 521 446 L 523 448 L 522 449 L 521 449 L 520 448 L 518 448 L 516 450 L 516 451 L 515 452 L 515 454 L 517 456 L 516 457 L 515 457 L 514 456 L 512 456 L 511 457 L 511 458 L 509 460 L 509 462 L 510 463 L 510 464 L 509 465 L 508 465 L 507 464 L 506 464 L 506 465 L 504 467 L 504 468 L 503 469 L 503 470 L 504 471 L 504 472 L 503 473 L 502 473 L 501 472 L 498 475 L 498 476 L 497 477 L 497 478 L 498 479 L 498 480 L 499 481 L 498 482 L 497 482 L 496 481 L 494 481 L 494 482 L 492 484 L 492 485 L 491 486 L 491 487 L 492 488 L 492 489 L 491 490 L 490 490 L 489 489 L 487 491 L 487 492 L 486 493 L 486 496 L 485 497 L 484 497 L 483 498 L 483 499 L 481 501 L 481 502 L 479 504 L 479 505 L 476 508 L 476 509 L 474 511 L 474 512 L 471 515 L 471 516 L 468 519 L 468 520 L 466 522 L 466 523 L 464 525 L 464 526 L 461 529 L 461 530 L 459 532 L 459 533 L 457 535 L 457 536 L 455 538 L 455 539 L 453 541 L 453 544 L 452 545 L 453 546 L 453 551 L 454 551 L 458 555 L 459 555 L 462 558 L 462 560 L 459 563 L 457 563 L 455 561 L 448 561 L 447 560 L 444 560 L 443 559 L 442 559 L 441 558 L 439 558 L 434 553 L 433 553 L 431 551 L 429 551 L 426 548 L 426 547 L 424 545 L 424 544 L 423 543 L 423 542 L 422 541 L 422 539 L 421 538 L 421 537 L 420 537 L 419 536 L 418 536 L 417 535 L 417 532 L 420 529 L 421 530 L 423 530 L 425 532 L 426 532 L 428 534 L 429 534 L 430 535 L 431 535 L 432 534 L 434 534 L 435 533 L 437 533 L 441 529 L 441 528 L 444 525 L 444 524 L 446 522 L 446 521 L 449 518 L 449 517 L 451 515 L 451 514 L 454 511 L 454 510 L 457 507 L 457 506 L 459 504 L 459 503 L 461 501 L 461 500 L 464 497 L 464 496 L 467 493 L 467 492 L 469 490 L 469 489 L 473 485 L 472 484 L 472 483 L 474 481 L 476 481 L 477 480 L 477 479 L 479 477 L 479 476 L 478 475 L 478 473 L 479 472 L 483 472 L 483 471 L 485 469 L 485 468 L 483 466 L 483 465 L 484 464 L 489 464 L 489 463 L 491 461 L 491 460 L 490 459 L 490 458 L 489 457 L 491 455 L 493 455 L 494 456 L 496 454 L 496 453 L 497 452 L 496 451 L 496 450 L 495 449 L 495 448 L 496 447 L 501 447 L 502 446 L 502 445 L 503 444 L 502 443 L 502 442 L 501 441 L 501 440 L 503 438 L 504 438 L 505 439 L 506 439 L 508 437 L 508 434 L 507 433 L 507 431 L 508 430 L 513 430 L 514 429 L 514 426 L 513 425 L 513 423 L 514 422 L 519 422 L 519 421 L 520 420 L 520 418 L 519 417 L 519 415 L 521 413 L 522 413 L 523 414 L 524 414 L 526 412 L 526 410 L 525 409 L 525 408 L 524 407 L 526 405 L 531 405 L 532 404 L 532 402 L 531 401 L 531 400 L 530 399 L 532 397 L 537 397 L 537 396 L 538 395 L 538 394 L 537 393 L 537 392 L 536 391 L 536 390 L 537 389 L 542 389 L 544 387 L 544 386 L 543 385 L 543 384 L 542 383 L 542 382 L 544 380 L 547 380 L 548 381 L 549 381 L 551 379 L 550 378 L 550 375 L 552 373 L 554 373 L 555 374 L 556 374 L 558 372 L 559 372 L 559 370 L 561 368 L 564 368 Z" fill="#cccccc" stroke="black" stroke-width="1" />
<path d="M 428 547 Z" fill="#cccccc" stroke="black" stroke-width="1" />
<path d="M 1018 364 L 1019 363 L 1033 363 L 1034 364 L 1037 364 L 1038 365 L 1040 365 L 1041 366 L 1043 366 L 1044 367 L 1045 367 L 1046 368 L 1047 368 L 1049 370 L 1050 370 L 1055 375 L 1056 375 L 1057 376 L 1057 377 L 1060 380 L 1060 381 L 1062 383 L 1062 384 L 1063 385 L 1063 386 L 1064 387 L 1064 388 L 1065 389 L 1065 391 L 1066 392 L 1066 395 L 1067 396 L 1067 411 L 1066 412 L 1066 414 L 1065 415 L 1065 417 L 1064 418 L 1064 420 L 1063 421 L 1063 422 L 1061 424 L 1061 425 L 1058 428 L 1058 429 L 1054 433 L 1053 433 L 1050 436 L 1049 436 L 1047 438 L 1046 438 L 1045 439 L 1044 439 L 1043 440 L 1041 440 L 1040 441 L 1038 441 L 1037 442 L 1034 442 L 1033 443 L 1021 443 L 1020 442 L 1017 442 L 1016 441 L 1014 441 L 1013 440 L 1012 440 L 1011 439 L 1009 439 L 1007 437 L 1006 437 L 1004 435 L 1003 435 L 994 426 L 994 425 L 993 424 L 993 423 L 992 422 L 992 421 L 990 419 L 990 417 L 989 416 L 989 415 L 988 414 L 988 410 L 987 409 L 987 395 L 988 394 L 988 391 L 989 390 L 989 388 L 990 387 L 990 386 L 991 385 L 991 384 L 992 383 L 992 382 L 993 381 L 993 380 L 1003 370 L 1004 370 L 1006 368 L 1007 368 L 1008 367 L 1009 367 L 1010 366 L 1011 366 L 1012 365 L 1014 365 L 1015 364 Z" fill="#cccccc" stroke="black" stroke-width="1" />
<path d="M 1023 388 L 1022 389 L 1020 389 L 1018 391 L 1017 391 L 1016 392 L 1016 393 L 1014 395 L 1014 396 L 1013 397 L 1013 406 L 1014 407 L 1014 409 L 1015 410 L 1015 411 L 1016 412 L 1017 412 L 1018 413 L 1018 414 L 1019 415 L 1020 415 L 1021 416 L 1022 416 L 1023 417 L 1026 417 L 1027 418 L 1029 418 L 1030 417 L 1033 417 L 1034 416 L 1035 416 L 1039 412 L 1039 411 L 1040 410 L 1040 409 L 1041 408 L 1041 398 L 1040 397 L 1040 396 L 1037 393 L 1037 392 L 1036 392 L 1034 390 L 1033 390 L 1032 389 L 1030 389 L 1029 388 Z" fill="#cccccc" stroke="black" stroke-width="1" />
<path d="M 598 320 L 599 319 L 600 320 L 601 320 L 602 321 L 603 321 L 604 322 L 605 322 L 606 323 L 607 323 L 608 324 L 609 324 L 611 326 L 612 326 L 613 327 L 614 327 L 615 328 L 616 328 L 617 329 L 618 329 L 619 330 L 620 330 L 621 331 L 622 331 L 623 332 L 625 332 L 626 333 L 628 333 L 629 334 L 630 334 L 631 335 L 633 335 L 634 336 L 635 336 L 636 337 L 638 337 L 639 338 L 640 338 L 641 339 L 642 339 L 643 340 L 645 340 L 646 341 L 647 341 L 648 342 L 650 342 L 651 343 L 652 343 L 653 344 L 654 344 L 655 345 L 655 346 L 657 348 L 658 348 L 659 349 L 661 349 L 662 350 L 664 350 L 664 349 L 665 348 L 666 348 L 663 345 L 663 341 L 665 339 L 667 339 L 669 341 L 669 342 L 683 356 L 686 356 L 687 357 L 688 357 L 689 358 L 690 358 L 692 360 L 692 361 L 693 362 L 693 363 L 695 365 L 697 365 L 698 366 L 699 366 L 702 363 L 704 363 L 705 364 L 706 364 L 707 365 L 708 365 L 711 368 L 711 370 L 712 371 L 713 371 L 714 372 L 715 372 L 716 373 L 718 373 L 718 372 L 720 370 L 722 370 L 723 371 L 724 371 L 725 372 L 726 372 L 729 375 L 729 376 L 730 377 L 730 378 L 731 378 L 732 379 L 733 379 L 734 380 L 735 380 L 736 379 L 737 379 L 737 378 L 738 377 L 740 377 L 741 378 L 742 378 L 743 379 L 745 379 L 746 380 L 747 380 L 748 381 L 748 382 L 750 384 L 750 385 L 751 386 L 751 392 L 750 393 L 750 395 L 748 397 L 748 398 L 747 399 L 747 401 L 748 402 L 741 409 L 738 409 L 737 410 L 733 410 L 732 409 L 730 409 L 729 408 L 727 408 L 726 407 L 726 405 L 727 404 L 726 403 L 725 403 L 724 402 L 720 402 L 719 403 L 714 403 L 713 402 L 711 402 L 710 401 L 709 401 L 708 400 L 708 396 L 706 396 L 705 395 L 701 395 L 700 396 L 696 396 L 695 395 L 693 395 L 692 394 L 691 394 L 689 392 L 690 391 L 690 390 L 689 389 L 688 389 L 687 388 L 682 388 L 681 389 L 678 389 L 677 388 L 675 388 L 674 387 L 673 387 L 672 386 L 651 386 L 650 387 L 648 387 L 646 385 L 646 384 L 647 383 L 647 382 L 648 381 L 649 381 L 650 380 L 654 380 L 653 379 L 653 377 L 652 377 L 651 376 L 650 376 L 649 375 L 647 375 L 646 374 L 645 374 L 644 375 L 642 375 L 641 374 L 639 374 L 638 373 L 637 373 L 636 372 L 634 372 L 633 371 L 631 371 L 630 370 L 628 370 L 627 369 L 625 369 L 624 368 L 622 368 L 621 367 L 619 367 L 618 366 L 616 366 L 615 365 L 613 365 L 612 364 L 611 364 L 610 363 L 608 363 L 607 362 L 602 362 L 601 361 L 597 361 L 596 360 L 593 360 L 592 359 L 589 359 L 588 358 L 586 358 L 585 357 L 586 356 L 586 350 L 587 349 L 587 347 L 588 346 L 588 343 L 589 342 L 589 341 L 590 340 L 590 338 L 591 337 L 591 335 L 592 334 L 592 333 L 593 332 L 593 330 L 594 329 L 594 328 L 595 327 L 595 326 L 596 325 L 596 324 L 597 323 L 597 322 L 598 321 Z" fill="#cccccc" stroke="black" stroke-width="1" />
<path d="M 185 314 L 191 314 L 195 318 L 195 319 L 196 320 L 196 323 L 197 324 L 197 328 L 198 329 L 198 331 L 199 331 L 200 332 L 201 332 L 202 333 L 226 333 L 227 334 L 257 334 L 258 335 L 261 335 L 263 333 L 265 335 L 266 335 L 267 336 L 272 336 L 272 335 L 274 333 L 275 334 L 275 335 L 276 336 L 283 336 L 283 334 L 284 333 L 286 335 L 286 336 L 287 336 L 288 337 L 293 337 L 294 336 L 294 334 L 295 333 L 296 334 L 296 335 L 297 336 L 297 337 L 304 337 L 304 335 L 305 334 L 306 334 L 307 335 L 307 337 L 308 337 L 309 338 L 314 338 L 314 337 L 315 336 L 315 335 L 316 334 L 317 335 L 317 336 L 318 337 L 318 338 L 325 338 L 325 337 L 327 335 L 328 336 L 328 338 L 330 338 L 331 339 L 335 339 L 335 338 L 336 337 L 336 336 L 337 335 L 338 336 L 338 337 L 339 338 L 339 339 L 346 339 L 346 338 L 347 337 L 347 336 L 348 335 L 349 336 L 349 339 L 351 339 L 352 340 L 356 340 L 356 339 L 357 338 L 357 337 L 358 336 L 359 337 L 359 338 L 360 339 L 360 340 L 367 340 L 367 338 L 368 337 L 369 337 L 370 338 L 370 340 L 371 340 L 372 341 L 377 341 L 377 340 L 378 339 L 378 338 L 379 337 L 381 339 L 381 341 L 388 341 L 388 339 L 390 337 L 391 338 L 391 341 L 392 342 L 394 342 L 395 343 L 398 343 L 398 342 L 400 340 L 401 341 L 401 342 L 402 343 L 402 344 L 403 344 L 404 345 L 407 345 L 408 346 L 409 345 L 411 345 L 412 346 L 412 347 L 413 347 L 414 348 L 416 348 L 417 349 L 418 349 L 420 351 L 419 352 L 418 352 L 417 353 L 416 353 L 415 354 L 414 354 L 413 353 L 412 354 L 408 354 L 405 357 L 403 357 L 402 356 L 402 355 L 400 355 L 399 356 L 397 356 L 397 357 L 396 358 L 396 359 L 395 360 L 394 360 L 392 358 L 392 356 L 388 356 L 387 357 L 386 357 L 386 358 L 385 359 L 385 360 L 384 361 L 382 359 L 382 357 L 381 356 L 376 356 L 376 357 L 375 358 L 375 359 L 374 360 L 373 360 L 372 359 L 372 358 L 371 357 L 371 356 L 370 355 L 367 355 L 366 356 L 365 356 L 365 357 L 363 359 L 362 359 L 361 358 L 361 356 L 360 355 L 355 355 L 355 356 L 354 357 L 354 358 L 353 359 L 352 359 L 351 358 L 351 357 L 350 356 L 350 355 L 345 355 L 344 356 L 344 357 L 343 358 L 341 358 L 340 357 L 340 355 L 339 354 L 334 354 L 334 356 L 332 358 L 331 358 L 330 357 L 330 356 L 329 355 L 329 354 L 328 354 L 327 353 L 326 353 L 325 354 L 324 354 L 323 355 L 323 356 L 322 357 L 321 357 L 318 354 L 318 353 L 314 353 L 313 354 L 313 355 L 311 357 L 310 357 L 309 356 L 309 355 L 308 354 L 308 353 L 303 353 L 303 354 L 301 356 L 299 356 L 298 355 L 298 354 L 297 353 L 297 352 L 293 352 L 292 353 L 292 354 L 290 356 L 289 356 L 287 354 L 287 353 L 286 352 L 282 352 L 282 353 L 280 355 L 278 355 L 277 354 L 277 353 L 275 351 L 273 351 L 272 352 L 271 352 L 270 353 L 269 353 L 268 354 L 265 351 L 261 351 L 260 352 L 255 352 L 254 351 L 221 351 L 220 350 L 201 350 L 200 351 L 199 351 L 198 352 L 198 356 L 197 357 L 197 360 L 196 361 L 196 363 L 195 364 L 195 365 L 194 366 L 193 366 L 192 367 L 188 367 L 187 366 L 186 366 L 183 363 L 183 361 L 182 360 L 182 358 L 181 357 L 181 353 L 180 352 L 180 350 L 179 349 L 179 345 L 178 344 L 178 333 L 179 332 L 179 329 L 180 328 L 180 326 L 181 325 L 181 321 L 182 320 L 182 318 L 183 317 L 183 316 Z" fill="#cccccc" stroke="black" stroke-width="1" />
<path d="M 740 285 L 741 284 L 742 285 L 741 286 Z" fill="#cccccc" stroke="black" stroke-width="1" />
<path d="M 673 254 L 674 253 L 675 254 L 674 255 Z" fill="#cccccc" stroke="black" stroke-width="1" />
<path d="M 1024 246 L 1025 246 L 1026 247 L 1026 249 L 1025 250 L 1025 254 L 1024 255 L 1023 255 L 1023 256 L 1022 257 L 1022 259 L 1021 260 L 1023 262 L 1023 264 L 1022 265 L 1018 265 L 1018 266 L 1017 267 L 1017 269 L 1019 271 L 1019 273 L 1018 274 L 1013 274 L 1011 276 L 1011 277 L 1013 279 L 1013 281 L 1011 283 L 1010 282 L 1007 282 L 1005 284 L 1005 285 L 1006 286 L 1006 287 L 1007 288 L 1005 290 L 1003 290 L 1002 289 L 1001 289 L 999 291 L 999 293 L 1001 295 L 1001 296 L 999 298 L 997 298 L 996 297 L 995 297 L 993 299 L 993 301 L 995 303 L 995 304 L 993 306 L 992 306 L 991 305 L 988 305 L 988 306 L 987 307 L 987 309 L 988 310 L 988 312 L 987 313 L 984 313 L 983 312 L 981 314 L 981 317 L 982 318 L 982 320 L 981 321 L 979 321 L 978 320 L 977 320 L 975 322 L 975 325 L 976 326 L 976 328 L 975 329 L 974 329 L 973 328 L 970 328 L 970 329 L 968 331 L 969 332 L 969 333 L 970 334 L 970 335 L 969 336 L 964 336 L 963 337 L 963 338 L 962 339 L 962 340 L 963 341 L 963 342 L 964 343 L 963 344 L 960 344 L 959 343 L 956 346 L 956 348 L 957 349 L 957 351 L 956 352 L 954 352 L 953 351 L 952 351 L 951 352 L 951 353 L 950 354 L 950 356 L 951 357 L 951 358 L 949 360 L 948 360 L 947 359 L 946 359 L 945 360 L 945 361 L 943 363 L 944 364 L 944 366 L 943 367 L 940 367 L 940 368 L 938 370 L 938 371 L 936 373 L 936 374 L 932 378 L 932 379 L 928 383 L 928 384 L 925 387 L 925 388 L 921 392 L 921 393 L 917 397 L 917 398 L 914 401 L 914 402 L 910 406 L 910 407 L 906 411 L 906 412 L 903 415 L 903 416 L 901 418 L 905 422 L 905 423 L 909 427 L 909 428 L 910 429 L 910 431 L 911 432 L 911 436 L 910 437 L 910 438 L 909 439 L 908 439 L 907 440 L 906 440 L 905 441 L 904 441 L 903 442 L 900 442 L 899 441 L 896 441 L 895 440 L 893 440 L 892 439 L 891 439 L 890 438 L 891 437 L 892 437 L 890 437 L 889 436 L 887 436 L 886 435 L 885 436 L 884 435 L 883 435 L 881 433 L 880 433 L 876 429 L 876 428 L 875 429 L 873 427 L 874 426 L 873 425 L 873 424 L 871 422 L 872 423 L 872 424 L 871 425 L 868 422 L 868 421 L 865 418 L 865 417 L 864 416 L 864 415 L 863 414 L 863 409 L 864 408 L 864 407 L 868 403 L 875 403 L 876 404 L 879 404 L 880 405 L 881 405 L 882 406 L 883 406 L 884 407 L 885 407 L 886 408 L 887 408 L 888 407 L 888 406 L 892 402 L 892 401 L 896 397 L 896 396 L 900 392 L 900 391 L 904 387 L 904 386 L 908 382 L 908 381 L 912 377 L 912 376 L 915 373 L 915 372 L 919 368 L 919 367 L 923 363 L 923 362 L 924 361 L 924 360 L 927 357 L 928 357 L 929 356 L 929 351 L 931 349 L 932 349 L 933 348 L 935 348 L 935 343 L 938 340 L 941 340 L 941 335 L 944 332 L 947 332 L 947 327 L 949 325 L 950 325 L 951 324 L 954 324 L 953 323 L 953 319 L 955 317 L 956 317 L 957 316 L 959 316 L 959 311 L 961 309 L 962 309 L 963 308 L 965 308 L 965 304 L 966 303 L 966 302 L 967 301 L 970 301 L 971 300 L 971 296 L 974 293 L 977 293 L 977 289 L 978 288 L 978 287 L 979 286 L 980 286 L 981 285 L 983 285 L 983 281 L 986 278 L 987 278 L 988 277 L 989 277 L 989 274 L 990 273 L 990 272 L 992 270 L 994 270 L 995 269 L 996 269 L 995 268 L 995 267 L 996 266 L 996 265 L 999 262 L 1002 262 L 1003 261 L 1003 259 L 1004 258 L 1004 257 L 1005 256 L 1006 256 L 1007 255 L 1012 255 L 1012 254 L 1016 250 L 1019 250 L 1020 249 L 1021 249 Z" fill="#cccccc" stroke="black" stroke-width="1" />
<path d="M 891 433 Z" fill="#cccccc" stroke="black" stroke-width="1" />
<path d="M 890 431 Z" fill="#cccccc" stroke="black" stroke-width="1" />
<path d="M 879 424 Z" fill="#cccccc" stroke="black" stroke-width="1" />
<path d="M 876 422 Z" fill="#cccccc" stroke="black" stroke-width="1" />
<path d="M 870 420 Z" fill="#cccccc" stroke="black" stroke-width="1" />
<path d="M 875 410 L 876 410 Z" fill="#cccccc" stroke="black" stroke-width="1" />
<path d="M 871 409 Z" fill="#cccccc" stroke="black" stroke-width="1" />
<path d="M 1007 185 L 1008 184 L 1009 185 L 1008 186 Z" fill="#cccccc" stroke="black" stroke-width="1" />
<path d="M 1008 183 L 1009 182 L 1010 183 L 1010 184 L 1009 185 L 1008 184 Z" fill="#cccccc" stroke="black" stroke-width="1" />
<path d="M 850 162 L 851 161 L 862 161 L 863 162 L 867 162 L 868 163 L 870 163 L 871 164 L 872 164 L 873 165 L 875 165 L 877 167 L 878 167 L 880 169 L 881 169 L 890 178 L 890 179 L 892 181 L 892 182 L 893 183 L 893 184 L 894 185 L 894 186 L 895 187 L 895 189 L 896 190 L 896 193 L 897 194 L 897 208 L 896 209 L 896 212 L 895 213 L 895 215 L 894 216 L 894 217 L 893 218 L 893 219 L 891 221 L 891 222 L 889 224 L 889 225 L 882 232 L 881 232 L 879 234 L 878 234 L 877 235 L 876 235 L 875 236 L 874 236 L 873 237 L 872 237 L 871 238 L 869 238 L 868 239 L 864 239 L 863 240 L 852 240 L 851 239 L 847 239 L 846 238 L 844 238 L 843 237 L 842 237 L 841 236 L 840 236 L 839 235 L 838 235 L 836 233 L 835 233 L 832 230 L 831 230 L 827 226 L 827 225 L 826 225 L 825 224 L 825 223 L 823 221 L 823 220 L 822 219 L 822 218 L 821 217 L 821 216 L 820 215 L 820 214 L 819 213 L 819 210 L 818 209 L 818 203 L 817 202 L 817 197 L 818 196 L 818 191 L 819 190 L 819 188 L 820 187 L 820 185 L 821 184 L 821 183 L 822 182 L 822 181 L 824 179 L 824 178 L 828 174 L 828 173 L 829 172 L 830 172 L 834 168 L 835 168 L 837 166 L 838 166 L 839 165 L 840 165 L 841 164 L 842 164 L 843 163 L 846 163 L 847 162 Z" fill="#cccccc" stroke="black" stroke-width="1" />
<path d="M 853 186 L 852 187 L 851 187 L 850 188 L 849 188 L 845 192 L 845 193 L 844 194 L 844 195 L 843 196 L 843 203 L 844 204 L 844 206 L 845 207 L 845 208 L 849 212 L 850 212 L 851 213 L 852 213 L 853 214 L 855 214 L 856 215 L 860 215 L 861 214 L 863 214 L 864 213 L 865 213 L 866 212 L 867 212 L 870 209 L 870 208 L 871 207 L 871 206 L 872 205 L 872 202 L 873 201 L 872 200 L 872 195 L 871 194 L 871 193 L 870 192 L 870 191 L 868 189 L 867 189 L 865 187 L 864 187 L 863 186 Z" fill="#cccccc" stroke="black" stroke-width="1" />
<path d="M 524 99 L 525 98 L 526 99 L 526 100 L 527 101 L 527 103 L 529 105 L 529 106 L 531 108 L 531 109 L 532 110 L 532 111 L 533 112 L 533 113 L 534 114 L 534 116 L 535 117 L 535 118 L 536 119 L 536 120 L 538 122 L 538 125 L 539 126 L 539 128 L 540 129 L 540 136 L 539 137 L 537 137 L 536 138 L 534 138 L 533 139 L 532 139 L 531 140 L 529 140 L 528 141 L 526 141 L 525 142 L 523 142 L 522 143 L 521 143 L 520 144 L 519 144 L 517 146 L 516 146 L 515 147 L 514 147 L 513 148 L 512 148 L 511 149 L 509 149 L 507 151 L 505 151 L 504 152 L 503 152 L 502 153 L 501 153 L 500 154 L 498 154 L 497 155 L 496 155 L 495 156 L 494 156 L 493 157 L 492 157 L 491 158 L 490 158 L 488 160 L 483 160 L 482 161 L 481 161 L 480 162 L 479 162 L 478 163 L 477 163 L 476 164 L 475 164 L 474 165 L 473 165 L 472 166 L 471 166 L 470 167 L 470 168 L 481 168 L 482 169 L 482 170 L 483 171 L 483 172 L 484 173 L 482 175 L 458 175 L 457 176 L 455 176 L 454 177 L 453 177 L 452 178 L 448 178 L 447 177 L 446 177 L 445 178 L 444 178 L 443 179 L 442 179 L 441 180 L 441 183 L 440 184 L 439 184 L 438 185 L 437 185 L 436 186 L 435 186 L 434 187 L 432 187 L 431 186 L 428 186 L 427 187 L 426 187 L 425 188 L 424 188 L 423 189 L 424 190 L 424 191 L 422 193 L 421 193 L 420 194 L 419 194 L 418 195 L 409 195 L 408 196 L 407 196 L 406 197 L 406 200 L 405 201 L 404 201 L 403 202 L 402 202 L 401 203 L 399 203 L 398 204 L 396 204 L 395 203 L 391 203 L 388 200 L 388 199 L 385 199 L 384 198 L 384 196 L 385 195 L 385 193 L 384 192 L 384 191 L 383 190 L 382 190 L 380 188 L 381 187 L 381 186 L 380 185 L 380 183 L 379 182 L 379 180 L 380 179 L 380 178 L 381 177 L 381 176 L 382 175 L 382 174 L 384 172 L 385 172 L 386 171 L 387 171 L 388 170 L 389 170 L 390 169 L 391 169 L 392 170 L 392 171 L 393 172 L 394 172 L 395 171 L 396 171 L 397 170 L 398 170 L 399 169 L 399 167 L 404 162 L 405 162 L 406 161 L 407 161 L 408 160 L 411 163 L 412 163 L 413 162 L 414 162 L 417 159 L 417 158 L 418 157 L 418 156 L 419 155 L 420 155 L 422 153 L 423 153 L 424 152 L 427 152 L 428 153 L 428 154 L 430 154 L 431 153 L 432 153 L 434 151 L 434 150 L 436 148 L 436 147 L 437 146 L 438 146 L 439 145 L 440 145 L 448 137 L 448 136 L 451 133 L 451 132 L 455 128 L 455 127 L 457 125 L 457 124 L 458 123 L 460 123 L 463 126 L 463 129 L 461 131 L 461 132 L 458 135 L 458 136 L 456 138 L 456 139 L 457 138 L 458 138 L 459 137 L 460 137 L 461 136 L 462 136 L 463 135 L 464 135 L 465 134 L 466 134 L 467 133 L 468 133 L 473 128 L 474 128 L 475 127 L 476 127 L 477 126 L 478 126 L 479 125 L 480 125 L 481 124 L 482 124 L 483 123 L 484 123 L 485 122 L 486 122 L 487 121 L 488 121 L 490 119 L 491 119 L 492 118 L 493 118 L 494 117 L 495 117 L 497 115 L 498 115 L 499 114 L 500 114 L 501 113 L 502 113 L 503 112 L 504 112 L 505 111 L 506 111 L 507 110 L 508 110 L 510 108 L 511 108 L 513 106 L 514 106 L 516 104 L 517 104 L 520 101 L 521 101 L 523 99 Z" fill="#cccccc" stroke="black" stroke-width="1" />
<path d="M 813 74 L 814 73 L 818 73 L 819 74 L 825 74 L 826 73 L 827 73 L 830 76 L 834 76 L 835 77 L 836 77 L 837 76 L 838 76 L 841 73 L 842 74 L 842 78 L 843 79 L 845 79 L 846 80 L 849 80 L 850 79 L 851 79 L 852 78 L 852 77 L 853 76 L 854 76 L 855 77 L 855 78 L 854 79 L 854 82 L 855 83 L 856 83 L 857 84 L 858 84 L 859 85 L 861 85 L 864 82 L 865 82 L 866 83 L 866 88 L 867 88 L 868 89 L 869 89 L 870 90 L 873 90 L 876 87 L 877 88 L 877 93 L 878 93 L 879 94 L 880 94 L 881 95 L 884 95 L 885 94 L 886 94 L 888 92 L 889 93 L 889 96 L 888 97 L 888 98 L 889 98 L 890 99 L 891 99 L 892 100 L 893 100 L 894 101 L 895 101 L 899 97 L 900 97 L 901 98 L 901 99 L 900 100 L 900 103 L 901 104 L 902 104 L 903 105 L 904 105 L 905 106 L 907 106 L 911 102 L 912 103 L 912 109 L 913 109 L 914 110 L 915 110 L 916 111 L 919 111 L 922 108 L 923 109 L 923 114 L 924 114 L 925 115 L 926 115 L 927 116 L 928 116 L 929 117 L 930 116 L 931 116 L 934 113 L 935 114 L 935 119 L 936 120 L 937 120 L 938 121 L 939 121 L 940 122 L 941 122 L 942 121 L 943 121 L 944 120 L 945 121 L 944 120 L 946 118 L 947 119 L 947 122 L 946 123 L 946 125 L 947 125 L 949 127 L 951 127 L 952 128 L 955 125 L 957 125 L 958 126 L 958 130 L 959 130 L 960 131 L 963 131 L 964 132 L 966 132 L 967 133 L 968 133 L 969 134 L 970 134 L 971 135 L 972 135 L 973 136 L 974 136 L 975 137 L 976 137 L 977 138 L 978 138 L 979 139 L 981 139 L 982 140 L 983 140 L 984 141 L 985 141 L 986 142 L 988 142 L 989 143 L 990 143 L 991 144 L 992 144 L 993 145 L 994 145 L 995 146 L 996 146 L 997 147 L 999 147 L 1001 149 L 1003 149 L 1004 150 L 1005 150 L 1006 151 L 1007 151 L 1008 152 L 1009 152 L 1010 153 L 1012 153 L 1013 154 L 1014 154 L 1015 155 L 1016 155 L 1017 156 L 1021 156 L 1022 155 L 1023 155 L 1025 153 L 1026 154 L 1026 156 L 1026 155 L 1027 154 L 1027 153 L 1028 152 L 1028 150 L 1029 149 L 1028 148 L 1030 146 L 1031 146 L 1032 145 L 1035 145 L 1036 146 L 1037 146 L 1040 149 L 1040 150 L 1041 151 L 1041 152 L 1042 153 L 1042 163 L 1041 164 L 1041 166 L 1040 167 L 1040 169 L 1039 170 L 1039 172 L 1038 173 L 1038 174 L 1034 178 L 1034 179 L 1032 181 L 1032 184 L 1024 192 L 1023 192 L 1021 194 L 1020 194 L 1019 195 L 1018 195 L 1017 196 L 1015 196 L 1014 197 L 1012 197 L 1011 196 L 1009 196 L 1006 193 L 1006 192 L 1005 191 L 1008 188 L 1008 187 L 1010 185 L 1010 184 L 1011 183 L 1010 183 L 1009 182 L 1009 178 L 1008 177 L 1008 176 L 1007 176 L 1006 175 L 1005 175 L 1004 174 L 1003 174 L 1002 173 L 1001 173 L 1000 172 L 999 172 L 998 171 L 997 171 L 996 170 L 994 170 L 993 169 L 992 169 L 991 168 L 990 168 L 989 167 L 988 167 L 987 166 L 986 166 L 985 165 L 984 165 L 983 164 L 982 164 L 981 163 L 980 163 L 979 162 L 977 162 L 976 161 L 975 161 L 974 160 L 973 160 L 972 159 L 971 159 L 970 158 L 969 158 L 968 157 L 967 157 L 966 156 L 964 156 L 963 155 L 962 155 L 961 154 L 960 154 L 958 152 L 956 152 L 955 151 L 951 151 L 949 149 L 950 148 L 948 146 L 947 146 L 946 145 L 944 145 L 943 144 L 939 148 L 938 147 L 938 142 L 937 141 L 935 141 L 934 140 L 933 140 L 932 139 L 931 140 L 930 140 L 929 141 L 928 140 L 928 139 L 928 140 L 929 141 L 927 143 L 926 142 L 926 137 L 924 135 L 922 135 L 921 134 L 920 134 L 919 135 L 917 135 L 917 136 L 916 137 L 915 137 L 914 136 L 914 135 L 915 134 L 915 131 L 914 131 L 913 130 L 912 130 L 911 129 L 908 129 L 907 130 L 906 130 L 906 131 L 905 132 L 904 132 L 903 131 L 903 126 L 902 125 L 901 125 L 900 124 L 897 124 L 896 125 L 895 125 L 894 124 L 894 123 L 894 124 L 895 125 L 893 127 L 892 127 L 891 126 L 891 125 L 892 124 L 892 121 L 891 120 L 890 120 L 889 119 L 887 119 L 886 118 L 885 119 L 884 119 L 883 120 L 883 121 L 882 122 L 881 122 L 880 121 L 880 115 L 879 115 L 878 114 L 877 114 L 876 113 L 874 113 L 872 115 L 871 115 L 870 116 L 869 115 L 869 110 L 868 110 L 867 109 L 866 109 L 865 108 L 863 108 L 862 109 L 861 109 L 859 111 L 858 111 L 857 110 L 857 105 L 856 104 L 855 104 L 854 103 L 851 103 L 849 105 L 847 105 L 846 104 L 846 100 L 845 99 L 844 99 L 843 98 L 842 98 L 841 97 L 840 97 L 837 100 L 836 100 L 835 99 L 835 93 L 833 91 L 832 91 L 831 90 L 830 90 L 828 92 L 826 92 L 825 91 L 825 86 L 820 81 L 818 81 L 816 79 L 816 78 L 815 77 L 814 77 L 813 76 Z" fill="#cccccc" stroke="black" stroke-width="1" />
<path d="M 701 57 L 702 56 L 703 57 L 709 57 L 710 58 L 711 58 L 712 59 L 713 59 L 714 60 L 715 60 L 718 63 L 719 63 L 720 64 L 720 65 L 721 66 L 721 68 L 722 69 L 722 77 L 721 78 L 721 80 L 720 81 L 720 82 L 719 83 L 719 84 L 717 86 L 717 87 L 716 88 L 716 89 L 715 90 L 715 93 L 714 94 L 714 95 L 713 96 L 713 97 L 712 98 L 712 99 L 711 100 L 711 101 L 710 102 L 710 103 L 709 104 L 709 105 L 708 106 L 708 107 L 707 108 L 707 110 L 706 111 L 706 112 L 705 113 L 705 114 L 704 115 L 704 116 L 703 117 L 703 118 L 702 119 L 702 120 L 701 121 L 701 122 L 700 123 L 700 124 L 699 125 L 699 127 L 698 128 L 698 129 L 697 130 L 697 131 L 696 132 L 696 134 L 695 135 L 695 144 L 694 145 L 694 154 L 693 155 L 691 155 L 688 152 L 687 152 L 687 153 L 686 154 L 686 155 L 685 156 L 685 157 L 684 158 L 684 159 L 683 160 L 683 161 L 682 162 L 682 163 L 681 164 L 681 165 L 680 166 L 680 168 L 679 169 L 679 170 L 678 171 L 678 172 L 677 173 L 677 174 L 676 175 L 676 176 L 675 177 L 675 178 L 674 179 L 674 181 L 673 182 L 673 183 L 672 184 L 672 186 L 671 187 L 671 188 L 670 189 L 670 190 L 669 191 L 669 192 L 668 193 L 668 194 L 667 195 L 667 196 L 666 197 L 666 198 L 665 199 L 665 200 L 664 201 L 664 202 L 663 203 L 663 204 L 662 205 L 662 206 L 661 207 L 661 208 L 660 209 L 660 210 L 659 211 L 659 212 L 658 213 L 658 214 L 657 215 L 657 216 L 656 217 L 656 218 L 655 219 L 653 219 L 653 220 L 652 221 L 650 219 L 649 219 L 648 218 L 647 218 L 646 217 L 644 217 L 643 216 L 641 216 L 640 215 L 639 215 L 637 213 L 636 213 L 634 211 L 633 211 L 632 210 L 631 210 L 630 209 L 629 209 L 628 208 L 627 208 L 626 207 L 626 204 L 625 203 L 625 202 L 626 201 L 626 200 L 627 199 L 627 198 L 628 197 L 628 196 L 629 195 L 629 194 L 630 193 L 630 192 L 631 191 L 631 190 L 632 189 L 632 188 L 633 187 L 633 186 L 634 185 L 634 184 L 635 183 L 635 182 L 636 181 L 636 180 L 637 179 L 637 178 L 638 177 L 638 176 L 639 175 L 639 174 L 640 173 L 640 172 L 641 171 L 641 170 L 643 168 L 643 167 L 644 166 L 644 164 L 645 163 L 645 162 L 646 161 L 646 160 L 647 159 L 647 158 L 648 157 L 648 156 L 649 155 L 649 154 L 650 153 L 650 151 L 651 150 L 651 149 L 652 148 L 652 147 L 651 147 L 648 144 L 648 141 L 655 134 L 655 133 L 664 124 L 664 123 L 665 122 L 665 120 L 666 119 L 666 118 L 667 117 L 667 115 L 668 114 L 668 113 L 670 111 L 670 110 L 671 109 L 671 108 L 672 107 L 672 106 L 673 105 L 673 102 L 674 101 L 674 100 L 675 99 L 675 98 L 676 97 L 676 96 L 677 95 L 677 94 L 679 92 L 679 91 L 680 90 L 680 89 L 681 88 L 681 85 L 682 84 L 682 83 L 683 82 L 683 81 L 684 80 L 684 79 L 685 78 L 685 77 L 687 75 L 687 74 L 688 73 L 688 72 L 689 71 L 689 68 L 690 67 L 690 66 L 691 65 L 691 64 L 692 63 L 692 62 L 695 59 L 696 59 L 697 58 L 698 58 L 699 57 Z" fill="#cccccc" stroke="black" stroke-width="1" />
<path d="M 141 53 L 142 52 L 143 52 L 145 54 L 145 56 L 146 57 L 146 59 L 147 60 L 147 61 L 148 62 L 148 63 L 149 64 L 149 66 L 150 67 L 150 68 L 151 69 L 151 71 L 152 72 L 152 73 L 153 74 L 153 75 L 155 77 L 155 78 L 156 79 L 156 81 L 157 82 L 157 86 L 158 87 L 158 89 L 159 90 L 159 92 L 160 93 L 160 95 L 161 96 L 161 99 L 162 100 L 162 102 L 163 103 L 163 105 L 164 106 L 164 107 L 165 108 L 165 110 L 168 110 L 169 111 L 171 111 L 172 112 L 172 128 L 173 129 L 173 131 L 174 132 L 174 137 L 176 139 L 176 140 L 177 141 L 177 142 L 178 143 L 178 145 L 179 146 L 179 148 L 180 149 L 180 153 L 181 154 L 181 156 L 184 159 L 184 161 L 185 162 L 185 164 L 186 165 L 186 167 L 187 168 L 187 172 L 188 173 L 188 174 L 190 176 L 190 177 L 191 178 L 191 180 L 192 181 L 192 183 L 193 184 L 193 186 L 194 187 L 194 191 L 196 193 L 196 194 L 197 195 L 197 196 L 198 197 L 198 199 L 199 200 L 199 205 L 198 206 L 198 208 L 197 209 L 197 210 L 195 212 L 193 212 L 193 213 L 191 215 L 190 215 L 189 216 L 187 216 L 186 217 L 181 217 L 180 218 L 178 218 L 176 216 L 175 216 L 174 215 L 173 215 L 170 212 L 169 212 L 168 211 L 168 210 L 167 209 L 167 208 L 166 207 L 166 206 L 165 205 L 165 202 L 164 201 L 164 198 L 163 197 L 163 195 L 161 193 L 161 192 L 160 191 L 160 189 L 159 188 L 159 187 L 158 186 L 158 181 L 157 180 L 157 178 L 156 177 L 156 176 L 154 174 L 154 173 L 153 172 L 153 170 L 152 169 L 152 167 L 151 166 L 151 162 L 150 161 L 150 159 L 148 157 L 148 156 L 147 155 L 147 153 L 146 152 L 146 151 L 145 150 L 145 146 L 137 138 L 137 135 L 138 134 L 139 134 L 139 132 L 138 131 L 138 128 L 137 127 L 137 126 L 136 125 L 136 123 L 135 122 L 135 121 L 134 120 L 134 118 L 133 117 L 133 115 L 132 114 L 132 112 L 131 111 L 131 110 L 130 109 L 130 107 L 129 106 L 129 105 L 128 104 L 128 103 L 127 102 L 127 100 L 126 99 L 126 98 L 125 97 L 125 95 L 124 94 L 124 93 L 123 92 L 123 90 L 122 89 L 122 87 L 121 86 L 121 85 L 120 84 L 120 82 L 119 81 L 119 79 L 118 78 L 118 77 L 117 76 L 117 74 L 116 73 L 116 71 L 115 70 L 115 68 L 114 67 L 114 64 L 115 63 L 115 59 L 116 58 L 119 58 L 120 57 L 122 57 L 123 56 L 124 56 L 125 55 L 127 55 L 128 54 L 131 54 L 132 53 Z" fill="#cccccc" stroke="black" stroke-width="1" />
</svg>
